<?xml version="1.0" encoding="UTF-8"?>
<svg width="38px" height="36px" viewBox="0 0 38 36" version="1.1" xmlns="http://www.w3.org/2000/svg" xmlns:xlink="http://www.w3.org/1999/xlink">
    <!-- Generator: Sketch 41 (35326) - http://www.bohemiancoding.com/sketch -->
    <title>Icon Google Plus</title>
    <desc>Created with Sketch.</desc>
    <defs></defs>
    <g id="Symbols" stroke="none" stroke-width="1" fill="none" fill-rule="evenodd">
        <g id="Footer-(Ohne-Partner-Dienste)" transform="translate(-740.000000, -301.000000)" fill="#A3A3A3">
            <path d="M753.08524,323.491979 L753.131435,323.491979 L753.178376,323.491979 L753.224571,323.491979 L753.271512,323.491979 L753.294609,323.491979 L753.34155,323.491979 L753.364648,323.491979 L753.410843,323.491979 L753.457784,323.491979 L753.480881,323.491979 L753.55092,323.491979 L753.620958,323.491979 L753.667154,323.491979 L753.737192,323.491979 L753.783387,323.491979 L753.853426,323.491979 L753.923464,323.491979 L753.969659,323.515076 L754.039698,323.515076 L754.109736,323.515076 L754.132834,323.515076 L754.179774,323.538174 C757.747257,326.074454 759.302256,327.337379 759.302256,329.732093 C759.302256,332.642407 756.89264,334.784536 752.387092,334.784536 C747.364452,334.784536 744.144181,332.388332 744.144181,329.057043 C744.144181,325.722773 747.137945,324.611846 748.172128,324.237067 C750.142886,323.579154 752.66352,323.491979 753.08524,323.491979 L753.08524,323.491979 Z M750.803034,302.536372 C754.700591,302.536372 756.717545,307.79595 756.717545,311.174925 L756.717545,311.268061 L756.717545,311.338099 L756.717545,311.431235 L756.694447,311.524371 L756.694447,311.616762 L756.694447,311.709898 L756.694447,311.826877 L756.670604,311.920013 L756.670604,312.036247 L756.647506,312.129383 L756.647506,312.245617 L756.624409,312.36185 L756.601311,312.454987 L756.577468,312.571965 L756.55437,312.688199 L756.531273,312.804433 L756.508175,312.920667 L756.461234,313.037646 L756.415039,313.153879 L756.391196,313.270113 L756.345001,313.386347 L756.274962,313.503326 L756.228767,313.619559 L756.181826,313.735793 L756.111788,313.852027 L756.042495,313.969006 L755.972457,314.08524 L755.902418,314.178376 L755.809282,314.294609 L755.739989,314.410843 L755.62301,314.503979 L755.529874,314.620958 C754.77808,315.371262 753.513665,315.924862 752.340151,315.924862 C748.303263,315.924862 746.472582,310.709245 746.472582,307.565718 C746.472582,306.345263 746.723676,305.081593 747.520176,304.096587 C748.27197,303.15703 749.584815,302.536372 750.803034,302.536372 L750.803034,302.536372 Z M770,301 L770,306 L765,306 L765,309 L770,309 L770,314 L773,314 L773,309 L778,309 L778,306 L773,306 L773,301 L770,301 Z M753.737192,301 C751.203892,301 748.029816,301.37776 745.354949,303.583966 C743.33725,305.320022 742.351498,307.7125 742.351498,309.871021 C742.351498,313.530894 745.176873,317.228767 750.151082,317.228767 C750.620488,317.228767 751.125658,317.180336 751.642004,317.135631 C751.405811,317.698918 751.175578,318.177264 751.175578,318.975254 C751.175578,320.428921 751.915451,321.320046 752.573364,322.164976 C750.461784,322.305798 746.517287,322.547207 743.608462,324.330203 C740.837479,325.973122 740,328.368581 740,330.058441 C740,333.532043 743.275408,336.76349 750.081789,336.76349 C758.155565,336.76349 762.445783,332.304882 762.445783,327.89247 C762.445783,324.655061 760.551769,323.062808 758.487129,321.326752 L756.810681,319.99975 C756.294335,319.575795 755.576815,319.029645 755.576815,317.996953 C755.576815,316.963515 756.295825,316.301877 756.903817,315.69165 C758.876065,314.143356 760.838628,312.505653 760.838628,309.032796 L760.838628,308.68335 L760.81553,308.380844 L760.792432,308.054495 L760.745492,307.75199 L760.676199,307.472581 L760.629258,307.193173 L760.55922,306.913765 L760.466084,306.657455 L760.372948,306.40189 L760.279812,306.145579 L760.186676,305.912367 L760.070442,305.679899 L759.954208,305.470529 L759.837974,305.260415 L759.697898,305.051045 L759.581664,304.841675 L759.441587,304.655403 L759.302256,304.469131 L759.186022,304.305956 L759.045945,304.142782 L758.905869,303.980353 L758.766537,303.840276 L758.626461,303.677102 L758.487129,303.537771 L758.347053,303.421537 L758.207721,303.304558 L758.091487,303.188324 L757.951411,303.07209 L757.835177,302.955857 L757.718943,302.862721 L757.625807,302.769585 L757.508828,302.676449 L760.419888,302.676449 L763.423339,301 L753.737192,301 Z" id="Icon-Google-Plus"></path>
        </g>
    </g>
</svg>