<?xml version="1.0" encoding="UTF-8"?>
<svg width="33px" height="34px" viewBox="0 0 33 34" version="1.1" xmlns="http://www.w3.org/2000/svg" xmlns:xlink="http://www.w3.org/1999/xlink">
    <!-- Generator: Sketch 41 (35326) - http://www.bohemiancoding.com/sketch -->
    <title>Icon Share</title>
    <desc>Created with Sketch.</desc>
    <defs></defs>
    <g id="Symbols" stroke="none" stroke-width="1" fill="none" fill-rule="evenodd">
        <g id="Footer-(Ohne-Partner-Dienste)" transform="translate(-827.000000, -301.000000)" fill="#A3A3A3">
            <path d="M851.870798,302.467919 C849.606169,303.59337 848.453268,306.054724 848.883318,308.420002 L836.631451,314.500186 C835.002749,312.729658 832.34467,312.162358 830.080042,313.283234 C827.339613,314.646586 826.218736,317.977191 827.577513,320.71762 C828.940865,323.462624 832.27147,324.5835 835.011899,323.220148 C835.6158,322.922773 836.13735,322.524747 836.571976,322.062672 L848.970244,328.051355 C848.810118,329.140207 848.961094,330.283958 849.487219,331.34536 C850.845996,334.085789 854.176601,335.206665 856.921605,333.843313 C859.662034,332.484536 860.78291,329.153932 859.419558,326.408928 C858.060781,323.663924 854.730177,322.547622 851.985173,323.910974 C851.358397,324.2175 850.823121,324.6384 850.374771,325.123351 L838.017678,319.152967 C838.109178,318.590242 838.118328,318.009216 838.035978,317.432765 L850.365621,311.311406 C852.003473,312.985859 854.592927,313.502834 856.80723,312.404833 C859.547659,311.046056 860.668535,307.710876 859.305183,304.970447 C857.946406,302.225443 854.615802,301.104567 851.870798,302.467919" id="Icon-Share"></path>
        </g>
    </g>
</svg>