<?xml version="1.0" encoding="UTF-8"?>
<svg width="38px" height="31px" viewBox="0 0 38 31" version="1.1" xmlns="http://www.w3.org/2000/svg" xmlns:xlink="http://www.w3.org/1999/xlink">
    <!-- Generator: Sketch 41 (35326) - http://www.bohemiancoding.com/sketch -->
    <title>Icon Twitter</title>
    <desc>Created with Sketch.</desc>
    <defs></defs>
    <g id="Symbols" stroke="none" stroke-width="1" fill="none" fill-rule="evenodd">
        <g id="Footer-(Ohne-Partner-Dienste)" transform="translate(-646.000000, -302.000000)" fill="#A3A3A3">
            <path d="M679.522929,306.900657 C681.134576,305.933014 682.368459,304.400729 682.949635,302.573943 C681.440812,303.470729 679.775518,304.119514 677.996224,304.471586 C676.581282,302.948157 674.551635,302.000443 672.3074,302.000443 C668.004459,302.000443 664.515165,305.503443 664.515165,309.825729 C664.515165,310.439086 664.577753,311.036943 664.714106,311.606014 C658.236224,311.280514 652.493753,308.167229 648.646812,303.430871 C647.973988,304.591157 647.589518,305.933014 647.589518,307.365657 C647.589518,310.080371 648.966459,312.476229 651.058694,313.8823 C649.780106,313.842443 648.577518,313.485943 647.526929,312.903586 L647.526929,312.9988 C647.526929,316.791871 650.211518,319.956086 653.781282,320.6713 C653.126341,320.855086 652.440106,320.948086 651.724812,320.948086 C651.224106,320.948086 650.732341,320.901586 650.260694,320.8108 C651.250929,323.917443 654.129988,326.182657 657.543282,326.242443 C654.872106,328.3438 651.512459,329.592657 647.859988,329.592657 C647.231871,329.592657 646.608224,329.559443 646.000224,329.486371 C649.449282,331.705086 653.546576,333.000443 657.950106,333.000443 C672.293988,333.000443 680.128694,321.076514 680.128694,310.733586 C680.128694,310.3948 680.126459,310.056014 680.110812,309.721657 C681.633047,308.618943 682.958576,307.239443 684.000224,305.669514 C682.600929,306.291729 681.098812,306.712443 679.522929,306.900657" id="Icon-Twitter"></path>
        </g>
    </g>
</svg>