<?xml version="1.0" encoding="UTF-8" standalone="no"?>
<svg width="189px" height="146px" viewBox="0 0 189 146" version="1.1" xmlns="http://www.w3.org/2000/svg" xmlns:xlink="http://www.w3.org/1999/xlink">
    <!-- Generator: Sketch 41 (35326) - http://www.bohemiancoding.com/sketch -->
    <title>Grafik Einfach sicher</title>
    <desc>Created with Sketch.</desc>
    <defs>
        <linearGradient x1="50.0048333%" y1="243.02875%" x2="50.0048333%" y2="-121.09875%" id="linearGradient-1">
            <stop stop-color="#A6A6AE" offset="0%"></stop>
            <stop stop-color="#DADAE2" offset="100%"></stop>
        </linearGradient>
        <linearGradient x1="50%" y1="111.759994%" x2="50%" y2="-2.61313725%" id="linearGradient-2">
            <stop stop-color="#A6A6AE" offset="0%"></stop>
            <stop stop-color="#DADAE2" offset="100%"></stop>
        </linearGradient>
        <path d="M45.7799988,0 L0,0 L0,55.559627 C0,80.7598864 20.5014777,101.197892 45.7799988,101.197892 C71.0585198,101.197892 91.5599976,80.7598864 91.5599976,55.559627 L91.5599976,0 L45.7799988,0 L45.7799988,0 Z" id="path-3"></path>
        <mask id="mask-4" maskContentUnits="userSpaceOnUse" maskUnits="objectBoundingBox" x="-8" y="-8" width="107.559998" height="117.197892">
            <rect x="-8" y="-8" width="107.559998" height="117.197892" fill="white"></rect>
            <use xlink:href="#path-3" fill="black"></use>
        </mask>
        <linearGradient x1="49.9726087%" y1="111.76%" x2="49.9726087%" y2="-2.61313725%" id="linearGradient-5">
            <stop stop-color="#A6A6AE" offset="0%"></stop>
            <stop stop-color="#DADAE2" offset="100%"></stop>
        </linearGradient>
        <linearGradient x1="49.9486111%" y1="100.171722%" x2="49.9486111%" y2="0%" id="linearGradient-6">
            <stop stop-color="#E20074" offset="0%"></stop>
            <stop stop-color="#FF339C" offset="100%"></stop>
        </linearGradient>
        <path d="M45.5809553,9.94316716 L9.95217365,9.94316716 L9.95217365,44.5453889 L9.95217365,51.5056059 C9.95217365,76.7612504 25.8756515,87.3010076 45.5809553,87.3010076 C65.2862591,87.3010076 81.6078239,71.1930768 81.6078239,51.5056059 L81.6078239,44.5453889 L81.6078239,9.94316716 L45.5809553,9.94316716 L45.5809553,9.94316716 Z" id="path-7"></path>
        <mask id="mask-8" maskContentUnits="userSpaceOnUse" maskUnits="objectBoundingBox" x="0" y="0" width="71.6556503" height="77.3578405" fill="white">
            <use xlink:href="#path-7"></use>
        </mask>
    </defs>
    <g id="Start" stroke="none" stroke-width="1" fill="none" fill-rule="evenodd">
        <g transform="translate(-1089.000000, -1058.000000)" id="Ein-Login-für-alle-Telekom-Dienste-02">
            <g transform="translate(60.000000, 686.000000)">
                <g id="Einfach-sicher" transform="translate(920.000000, 372.000000)">
                    <g id="Grafik-Einfach-sicher" transform="translate(109.000000, 0.000000)">
                        <g id="Fenster_News">
                            <path d="M188.075676,139.093288 C188.075676,142.618302 185.163339,145.377008 181.791159,145.377008 L6.28451731,145.377008 C2.75905638,145.377008 0,142.46504 0,139.093288 L0,6.67538797 C0,3.15037443 2.91233729,0.391668172 6.28451731,0.391668172 L181.637878,0.391668172 C185.163339,0.391668172 187.922396,3.30363589 187.922396,6.67538797 L187.922396,139.093288 L188.075676,139.093288 Z" id="Shape" fill="#EDEDED"></path>
                            <g id="Group" transform="translate(75.107646, 62.837198)" fill="#A4A4A4">
                                <rect id="Rectangle-path" x="0" y="52.3473026" width="103.924457" height="6.13045834"></rect>
                                <rect id="Rectangle-path" x="0" y="39.3200787" width="103.924457" height="6.13045834"></rect>
                                <rect id="Rectangle-path" x="0" y="26.2928547" width="103.924457" height="6.13045834"></rect>
                                <rect id="Rectangle-path" x="0" y="0.238406713" width="103.924457" height="6.13045834"></rect>
                                <rect id="Rectangle-path" x="0" y="13.2656307" width="103.924457" height="6.13045834"></rect>
                            </g>
                            <g id="Group" transform="translate(8.344679, 62.837198)">
                                <rect id="Rectangle-path" fill="#7BCAF7" x="0.545613636" y="0.544929631" width="57.6336221" height="57.6263084"></rect>
                                <path d="M30.588672,46.8298901 C32.4280429,42.3853078 37.9461557,26.2928547 42.8511448,26.2928547 C47.7561339,26.2928547 54.0406512,43.6113995 54.6537748,47.5961974 C55.4201794,51.7342568 30.588672,46.8298901 30.588672,46.8298901 L30.588672,46.8298901 Z" id="Shape" fill="#BFCD36"></path>
                                <rect id="Rectangle-path" fill="#735441" x="12.8080864" y="41.3124776" width="1.37952819" height="7.0500271"></rect>
                                <rect id="Rectangle-path" fill="#CFD96C" x="0.545613636" y="47.442936" width="57.6336221" height="10.5750406"></rect>
                                <g transform="translate(14.647457, 7.663073)" id="Shape">
                                    <polygon fill="#FFEDA9" points="8.73701187 4.3764661 11.0362255 0.238406713 11.0362255 4.98951193 15.0215292 2.53732859 12.5690346 6.67538797 17.3207428 6.52212652 13.1821583 8.8210484 17.3207428 11.1199703 12.5690346 11.1199703 15.1748101 15.2580297 11.0362255 12.8058463 11.0362255 17.5569515 8.73701187 13.4188922 6.43779822 17.5569515 6.59107913 12.8058463 2.45249456 15.2580297 4.90498912 11.1199703 0.15328091 11.2732317 4.29186548 8.97430985 0.15328091 6.67538797 4.90498912 6.67538797 2.45249456 2.69059005 6.43779822 5.14277339 6.43779822 0.238406713"></polygon>
                                    <path d="M9.65669732,14.9515067 C6.28451731,15.4112911 3.21889911,13.1123692 2.75905638,9.74061715 C2.29921365,6.36886506 4.5984273,3.30363589 7.97060732,2.84385151 C11.3427873,2.38406713 14.4084055,4.68298901 14.8682483,8.0547411 C15.328091,11.4264932 12.8755964,14.4917224 9.65669732,14.9515067 L9.65669732,14.9515067 L9.65669732,14.9515067 Z" fill="#FFDF50"></path>
                                </g>
                                <ellipse id="Oval" fill="#889226" cx="13.574491" cy="39.0135557" rx="4.29186548" ry="4.29132084"></ellipse>
                            </g>
                            <rect id="Rectangle-path" fill="#4DB9F5" x="8.89029277" y="38.8602943" width="170.14181" height="11.1880865"></rect>
                            <path d="M9.9475983e-14,25.0271358 L9.9475983e-14,6.25678395 C9.9475983e-14,2.74688076 2.91075052,0 6.28109323,0 L181.538914,0 C185.062454,0 187.820007,2.89948524 187.820007,6.25678395 L187.820007,25.0271358" id="Shape" fill="url(#linearGradient-1)"></path>
                            <rect id="Rectangle-path" fill="#FFFFFF" x="37.8603847" y="6.67538797" width="115.420525" height="12.5674396"></rect>
                            <polygon id="Shape" fill="#6C6C6C" opacity="0.5" points="15.7879337 19.2428276 15.7879337 6.67538797 5.97795549 12.6525849"></polygon>
                            <polygon id="Shape" fill="#6C6C6C" opacity="0.5" points="22.072451 6.67538797 22.072451 19.2428276 31.5758674 12.9591078"></polygon>
                        </g>
                        <g id="Icon-Sicher" transform="translate(48.790342, 33.129245)">
                            <path d="M53.6091412,7.22819882 L7.83054872,7.22819882 L7.83054872,62.7861192 C7.83054872,87.9856044 28.3313967,108.422982 53.6091412,108.422982 C78.8868858,108.422982 99.3877338,87.9856044 99.3877338,62.7861192 L99.3877338,7.22819882 L53.6091412,7.22819882 L53.6091412,7.22819882 Z" id="Shape" fill="#000000" opacity="0.204524254"></path>
                            <g id="Shape">
                                <use fill="url(#linearGradient-2)" fill-rule="evenodd" xlink:href="#path-3"></use>
                                <use stroke="#5F5F5F" mask="url(#mask-4)" stroke-width="16" xlink:href="#path-3"></use>
                            </g>
                            <path d="M45.5795552,17.857903 L9.95186794,17.857903 L9.95186794,48.4147591 L9.95186794,57.3437106 C9.95186794,77.185825 25.6758193,93.0595166 45.5795552,93.0595166 C65.483291,93.0595166 81.6053171,77.185825 81.6053171,57.3437106 L81.6053171,48.4147591 L81.6053171,17.857903 L45.5795552,17.857903 L45.5795552,17.857903 Z" id="Shape" fill="#DADAE2" style="mix-blend-mode: multiply;"></path>
                            <path d="M45.5795552,9.9210572 L9.95186794,9.9210572 L9.95186794,44.4463363 L9.95186794,51.3910763 C9.95186794,76.5905616 25.8748566,87.1068822 45.5795552,87.1068822 C65.2842537,87.1068822 81.6053171,71.0347696 81.6053171,51.3910763 L81.6053171,44.4463363 L81.6053171,9.9210572 L45.5795552,9.9210572 L45.5795552,9.9210572 Z" id="Shape" fill="#E20074"></path>
                            <path d="M37.6180608,65.4789775 C36.622874,65.4789775 35.8267246,65.0821352 35.0305751,64.4868718 L22.6902589,52.9784455 C21.2969974,51.5894975 21.09796,49.4068649 22.4912215,47.8194957 C23.8844831,46.4305477 26.073894,46.2321266 27.6661929,47.6210746 L37.4190235,56.7484472 L63.4929175,30.7552773 C64.886179,29.3663293 67.2746273,29.3663293 68.6678888,30.7552773 C70.0611503,32.1442253 70.0611503,34.5252791 68.6678888,35.9142271 L40.2055465,64.2884507 C39.409397,65.0821352 38.6132476,65.4789775 37.6180608,65.4789775 L37.6180608,65.4789775 Z" id="Shape" fill="#FFFFFF" opacity="0.9"></path>
                        </g>
                        <g id="Icon-Datenschutz" transform="translate(49.000000, 33.000000)">
                            <path d="M45.7799988,0 L0,0 L0,55.6817361 C0,80.9373806 20.5014777,101.420305 45.7799988,101.420305 C71.0585198,101.420305 91.5599976,80.9373806 91.5599976,55.6817361 L91.5599976,0 L45.7799988,0 L45.7799988,0 Z" id="Shape" fill="url(#linearGradient-5)"></path>
                            <path d="M45.5809553,17.8977009 L9.95217365,17.8977009 L9.95217365,48.5226557 L9.95217365,57.4715062 C9.95217365,77.3578405 25.676608,93.2669079 45.5809553,93.2669079 C65.4853026,93.2669079 81.6078239,77.3578405 81.6078239,57.4715062 L81.6078239,48.5226557 L81.6078239,17.8977009 L45.5809553,17.8977009 L45.5809553,17.8977009 Z" id="Shape" fill="#DADAE2" style="mix-blend-mode: multiply;"></path>
                            <use id="Shape" stroke="#CC0069" mask="url(#mask-8)" stroke-width="6" fill="url(#linearGradient-6)" xlink:href="#path-7"></use>
                            <path d="M37.6180608,65.4789775 C36.622874,65.4789775 35.8267246,65.0821352 35.0305751,64.4868718 L22.6902589,52.9784455 C21.2969974,51.5894975 21.09796,49.4068649 22.4912215,47.8194957 C23.8844831,46.4305477 26.073894,46.2321266 27.6661929,47.6210746 L37.4190235,56.7484472 L63.4929175,30.7552773 C64.886179,29.3663293 67.2746273,29.3663293 68.6678888,30.7552773 C70.0611503,32.1442253 70.0611503,34.5252791 68.6678888,35.9142271 L40.2055465,64.2884507 C39.409397,65.0821352 38.6132476,65.4789775 37.6180608,65.4789775 L37.6180608,65.4789775 Z" id="Shape" fill="#FFFFFF" opacity="0.9"></path>
                        </g>
                    </g>
                </g>
            </g>
        </g>
    </g>
</svg>