<?xml version="1.0" encoding="UTF-8" standalone="no"?>
<svg width="165px" height="157px" viewBox="0 0 165 157" version="1.1" xmlns="http://www.w3.org/2000/svg" xmlns:xlink="http://www.w3.org/1999/xlink">
    <!-- Generator: Sketch 41 (35326) - http://www.bohemiancoding.com/sketch -->
    <title>Grafik Einfach bequem</title>
    <desc>Created with Sketch.</desc>
    <defs>
        <linearGradient x1="56.9922074%" y1="122.631961%" x2="70.6044105%" y2="21.2050882%" id="linearGradient-1">
            <stop stop-color="#FFDE5D" offset="0%"></stop>
            <stop stop-color="#FFE990" offset="100%"></stop>
        </linearGradient>
        <linearGradient x1="64.5879912%" y1="110.014338%" x2="64.5879924%" y2="11.1092227%" id="linearGradient-2">
            <stop stop-color="#01AEA2" offset="0%"></stop>
            <stop stop-color="#00D1C2" offset="100%"></stop>
        </linearGradient>
        <linearGradient x1="56.5724254%" y1="107.801587%" x2="50%" y2="3.590264%" id="linearGradient-3">
            <stop stop-color="#4DB9F4" offset="0%"></stop>
            <stop stop-color="#79CAF7" offset="100%"></stop>
        </linearGradient>
        <linearGradient x1="50%" y1="0%" x2="50%" y2="100%" id="linearGradient-4">
            <stop stop-color="#FF339C" offset="0%"></stop>
            <stop stop-color="#E20074" offset="100%"></stop>
        </linearGradient>
        <linearGradient x1="49.9958512%" y1="99.9974971%" x2="49.9958512%" y2="3.2868202e-05%" id="linearGradient-5">
            <stop stop-color="#A6A6AE" offset="0%"></stop>
            <stop stop-color="#DADAE2" offset="100%"></stop>
        </linearGradient>
    </defs>
    <g id="Start" stroke="none" stroke-width="1" fill="none" fill-rule="evenodd">
        <g transform="translate(-180.000000, -1056.000000)" id="Ein-Login-für-alle-Telekom-Dienste-02">
            <g transform="translate(60.000000, 686.000000)">
                <g id="Einfach-bequem" transform="translate(0.000000, 317.000000)">
                    <g id="Grafik-Einfach-bequem" transform="translate(217.380420, 129.164034) rotate(19.000000) translate(-217.380420, -129.164034) translate(118.380420, 26.664034)">
                        <g id="Group" transform="translate(0.342153, 0.921688)">
                            <g transform="translate(100.589154, 101.708607) rotate(10.000000) translate(-100.589154, -101.708607) translate(18.589154, 13.208607)" id="Shape">
                                <path d="M125.608113,134.836078 L57.5606619,66.9496243 C57.0351989,66.1632948 56.509736,65.639075 55.7215416,64.8527455 C45.7377456,54.8925708 29.1856628,54.8925708 19.2018668,64.8527455 C9.21807087,74.8129201 9.21807087,90.5395116 18.6764039,100.761796 C18.9391354,101.023906 19.2018668,101.548126 19.4645983,101.810236 L88.8257072,171.007238 C91.1902904,173.366227 95.1312625,173.366227 97.4958458,171.007238 L125.345382,143.223593 C127.972697,141.126714 127.972697,137.195067 125.608113,134.836078 L125.608113,134.836078 Z" fill="#BFCB44"></path>
                                <path d="M138.330634,101.919087 L70.2831821,34.0326334 C69.7577191,33.2463039 69.2322562,32.7220841 68.4440618,31.9357546 C58.4602658,21.9755799 41.908183,21.9755799 31.924387,31.9357546 C21.9405911,41.8959292 21.9405911,57.6225208 31.3989241,67.8448053 C31.6616555,68.1069151 31.924387,68.6311348 32.1871185,68.8932447 L101.548227,138.090247 C103.912811,140.449236 107.853783,140.449236 110.218366,138.090247 L138.067902,110.306602 C140.695217,108.209724 140.695217,104.278076 138.330634,101.919087 L138.330634,101.919087 Z" fill="url(#linearGradient-1)" transform="translate(82.221026, 82.162556) rotate(-45.000000) translate(-82.221026, -82.162556) "></path>
                                <path d="M137.08195,114.04666 L69.0344982,46.1602062 C68.5090352,45.3738766 67.9835723,44.8496569 67.1953779,44.0633273 C57.2115819,34.1031527 40.6594991,34.1031527 30.6757031,44.0633273 C20.6919072,54.023502 20.6919072,69.7500935 30.1502402,79.972378 C30.4129717,80.2344879 30.6757031,80.7587076 30.9384346,81.0208174 L100.299543,150.21782 C102.664127,152.576809 106.605099,152.576809 108.969682,150.21782 L136.819218,122.434175 C139.446533,120.337296 139.446533,116.405648 137.08195,114.04666 L137.08195,114.04666 Z" fill="url(#linearGradient-2)" transform="translate(80.972342, 94.290129) rotate(-30.000000) translate(-80.972342, -94.290129) "></path>
                                <path d="M64.5821838,57.3222803 C64.0567208,56.5359507 63.5312579,56.011731 62.7430635,55.2254014 C52.7592675,45.2652268 36.2071847,45.2652268 26.2233887,55.2254014 C16.2395928,65.185576 16.2395928,80.9121676 25.6979258,91.1344521 C25.9606573,91.3965619 26.2233887,91.9207817 26.4861202,92.1828915 L95.8472291,161.379894 C98.2118123,163.738883 102.152784,163.738883 104.517368,161.379894 L132.366904,133.596249 C134.994219,131.49937 134.994219,127.567722 132.629635,125.208734 L64.5821838,57.3222803 Z" fill="url(#linearGradient-3)" transform="translate(76.520028, 105.452203) rotate(-15.000000) translate(-76.520028, -105.452203) "></path>
                                <path d="M125.608113,134.836078 L57.5606619,66.9496243 C57.0351989,66.1632948 56.509736,65.639075 55.7215416,64.8527455 C45.7377456,54.8925708 29.1856628,54.8925708 19.2018668,64.8527455 C9.21807087,74.8129201 9.21807087,90.5395116 18.6764039,100.761796 C18.9391354,101.023906 19.2018668,101.548126 19.4645983,101.810236 L88.8257072,171.007238 C91.1902904,173.366227 95.1312625,173.366227 97.4958458,171.007238 L125.345382,143.223593 C127.972697,141.126714 127.972697,137.195067 125.608113,134.836078 L125.608113,134.836078 Z" fill="url(#linearGradient-4)"></path>
                            </g>
                            <path d="M60.9433519,74.628857 L18.1181219,74.628857 C17.5926589,74.628857 17.067196,74.628857 16.2790015,74.8909669 C13.9144183,75.4151866 11.549835,77.2499556 10.2361777,79.0847246 L1.30330759,94.2870964 C-0.273081244,96.908195 0.252381701,100.839843 2.09150201,103.198832 L26.7882605,132.293026 L26.7882605,132.293026 L26.7882605,188.384536 L26.7882605,188.384536 C26.7882605,189.432975 27.0509919,190.743525 27.8391864,191.529854 L36.7720564,199.13104 C38.3484453,200.703699 40.97576,200.703699 42.5521488,199.13104 L52.0104819,191.529854 C53.0614078,190.481415 53.3241392,189.170865 53.0614078,187.860316 L53.0614078,132.293026 L77.2327033,103.198832 C79.0718236,100.839843 79.334555,96.908195 77.7581662,94.2870964 L68.8252961,79.0847246 C67.2489073,76.7257359 63.8333981,74.628857 60.9433519,74.628857 L60.9433519,74.628857 Z M58.3160372,91.9281077 L58.3160372,96.3839753 C58.3160372,97.1703049 57.7905743,97.9566344 57.0023799,98.2187443 L56.4769169,98.2187443 L23.3727513,98.2187443 C22.3218254,98.2187443 21.533631,97.4324147 21.533631,96.3839753 L21.533631,91.9281077 C21.533631,90.6175584 22.5845569,89.3070091 23.6354828,89.0448992 L23.8982143,89.0448992 C24.9491402,88.7827894 29.1528437,87.7343499 39.6621026,87.7343499 C51.7477504,87.7343499 56.2141854,89.0448992 56.2141854,89.0448992 C57.2651113,89.3070091 58.3160372,90.6175584 58.3160372,91.9281077 L58.3160372,91.9281077 Z" id="Shape" fill="#C1C1C9"></path>
                        </g>
                        <path d="M61.7400997,81.7629823 L33.9559726,81.7761727 C32.5360948,86.2688354 32.3933138,91.0622399 33.4906123,95.6234928 C35.4181559,95.5311598 37.6735671,95.4731219 40.293863,95.4731219 C52.4408253,95.4678457 56.8511721,96.7499561 56.8881894,96.7657846 C58.0277934,97.1113741 59.0193282,98.4515224 59.0193282,99.6465759 L59.0669219,103.651192 C59.0774982,104.490104 58.4905096,105.228769 57.6972818,105.429263 C57.5650772,105.46092 57.4143639,105.482025 57.2768711,105.476749 L38.2235384,105.482025 C38.7312042,106.130994 39.2705991,106.766773 39.8496554,107.376172 C39.9395546,107.518628 46.1783935,122.610324 58.3279999,134.758716 L78.1652041,110.945504 C80.071595,108.589692 80.3598012,104.690599 78.8262273,102.063064 L69.6247844,86.287302 C68.1388043,83.7521001 64.6776868,81.7524299 61.7400997,81.7629823 Z" id="Schatten" fill="#000000" opacity="0.0800000057"></path>
                        <path d="M61.7400997,75.5740295 L18.6757603,75.5951342 C18.1072804,75.5845819 17.5017831,75.6690007 16.8883536,75.8167336 C14.4134828,76.4261317 11.999426,78.1672693 10.8677543,80.1616633 L1.9175002,95.4572933 C0.436808235,98.0637236 0.788472576,101.965455 2.7239485,104.329181 L27.4462161,133.548636 L27.4462161,133.548636 L27.4515043,190.003703 L27.470013,190.003703 C27.3695374,191.159185 27.7344223,192.354239 28.6149052,193.23536 L37.5942443,200.877899 C39.1648354,202.444923 41.7269613,202.444923 43.3001965,200.877899 L52.7184551,193.23536 C53.7047017,192.246077 54.0669424,190.861082 53.8897882,189.581609 L53.8897882,133.561826 L78.1678482,104.284333 C80.0742391,101.928521 80.3624453,98.0241523 78.8288714,95.4018935 L69.6327167,80.0957111 C68.1388043,77.5631473 64.6776868,75.5634772 61.7400997,75.5740295 L61.7400997,75.5740295 Z M59.1726856,92.9431962 L59.1726856,97.4886205 C59.183262,98.3222561 58.6835284,99.0661967 57.8876565,99.2614152 C57.7554519,99.2930722 57.6047386,99.3141769 57.4672457,99.3089008 L24.0274042,99.316815 C23.0279371,99.3273674 22.1844715,98.4831794 22.1844715,97.472792 L22.1553865,92.9431962 C22.1500983,91.7481426 23.1257685,90.3974419 24.2468639,90.0518525 C24.252152,90.0413002 24.3341189,90.0201955 24.4768999,89.9859003 C25.6455889,89.6983488 30.1722758,88.7697421 40.664036,88.7644659 C52.8109983,88.7644659 57.0389027,90.0413002 57.0785641,90.0571287 C58.2181681,90.4027181 59.1726856,91.7428665 59.1726856,92.9431962 L59.1726856,92.9431962 Z" id="Shape" fill="url(#linearGradient-5)"></path>
                        <path d="M40.6666801,43.8272872 C26.0845083,43.8272872 14.2231081,55.6617468 14.2231081,70.20816 C14.2231081,84.7624875 26.0845083,96.5995851 40.6666801,96.5995851 C47.1367752,96.5995851 53.0648312,94.2596017 57.6655527,90.3921658 C57.4778221,90.2365186 57.2821592,90.1204428 57.0785641,90.0571287 C57.0415468,90.0439382 53.2261209,88.8963703 42.485816,88.7750183 C42.0997784,88.7697421 41.719029,88.767104 41.346212,88.767104 C41.1161759,88.767104 40.8993603,88.7618278 40.664036,88.7618278 C40.1140647,88.7618278 39.6434162,88.7750183 39.125174,88.7802944 C38.7602892,88.7697421 38.4562185,88.6668567 38.2023856,88.5006572 C29.1595883,87.2924132 22.1553865,79.5601794 22.1553865,70.20816 C22.1553865,60.0277812 30.4604819,51.7415491 40.6666801,51.7415491 C48.5672294,51.7415491 55.309666,56.7169817 57.959047,63.6868083 C61.9225421,63.618218 65.0663684,64.4492155 66.5761454,64.9557282 C64.1277155,52.9154979 53.4429365,43.8272872 40.6666801,43.8272872 L40.6666801,43.8272872 Z" id="Shape" fill="#948983"></path>
                    </g>
                </g>
            </g>
        </g>
    </g>
</svg>