<?xml version="1.0" encoding="UTF-8"?>
<svg width="285px" height="170px" viewBox="0 0 285 170" version="1.1" xmlns="http://www.w3.org/2000/svg" xmlns:xlink="http://www.w3.org/1999/xlink">
    <!-- Generator: Sketch 41 (35326) - http://www.bohemiancoding.com/sketch -->
    <title>Grafik Einfach flexibel</title>
    <desc>Created with Sketch.</desc>
    <defs></defs>
    <g id="Start" stroke="none" stroke-width="1" fill="none" fill-rule="evenodd">
        <g transform="translate(-573.000000, -1054.000000)" id="Ein-Login-für-alle-Telekom-Dienste-02">
            <g transform="translate(60.000000, 686.000000)">
                <g id="Einfach-flexibel" transform="translate(460.000000, 368.000000)">
                    <g id="Grafik-Einfach-flexibel" transform="translate(53.000000, 0.000000)">
                        <g id="Desktop" transform="translate(63.772225, 0.000000)">
                            <rect id="Rectangle-path" fill="#2D2D2D" x="79.4303548" y="119.830258" width="31.8843223" height="22.5296962"></rect>
                            <path d="M50.8444106,148.85121 L50.8444106,142.359954 C50.8444106,140.345427 52.3836538,139.226245 53.9228969,139.226245 L136.602243,139.226245 C138.141486,139.226245 139.680729,140.569263 139.680729,142.359954 L139.680729,148.85121 L50.8444106,148.85121 L50.8444106,148.85121 Z" id="Shape" fill="#4B4B4B"></path>
                            <path d="M6.42625129,0 C3.347765,0 0.0493868338,3.13370969 0.0493868338,6.49125578 L0.0493868338,119.752477 C0.0493868338,122.886187 3.12787312,126.243733 6.42625129,126.243733 L184.538672,126.243733 C187.617159,126.243733 190.915537,123.110023 190.915537,119.752477 L190.915537,6.49125578 C190.915537,3.3575461 187.837051,0 184.538672,0 L6.42625129,0 L6.42625129,0 Z" id="Shape" fill="#4B4B4B"></path>
                            <g id="Screen" transform="translate(9.129282, 9.152924)">
                                <rect fill="#FFFFFF" x="0.378521615" y="0.467070775" width="171.740005" height="106.769966"></rect>
                                <rect id="Rectangle-131" fill="#D0D0D0" x="51.9666844" y="95.8470757" width="4.21351495" height="4.22442662"></rect>
                                <rect id="Rectangle-131" fill="#A4A4A4" x="60" y="84.8470757" width="67.4162392" height="4.62604714"></rect>
                                <rect id="Rectangle-131" fill="#A4A4A4" x="60" y="95.8470757" width="67.4162392" height="4.62604714"></rect>
                                <rect id="Rectangle-131" fill="#D0D0D0" x="51.9666844" y="84.8470757" width="4.21351495" height="4.22442662"></rect>
                                <rect id="Rectangle-131" fill="#A4A4A4" x="60" y="73.8470757" width="74.4387642" height="4.62604714"></rect>
                                <rect id="Rectangle-131" fill="#D0D0D0" x="51.9666844" y="73.8470757" width="4.21351495" height="4.22442662"></rect>
                                <rect id="Rectangle-131" fill="#A4A4A4" x="60" y="62.8470757" width="53.3711894" height="4.62604714"></rect>
                                <rect id="Rectangle-131" fill="#D0D0D0" x="51.9666844" y="62.8470757" width="4.21351495" height="4.22442662"></rect>
                                <rect id="Rectangle-131" fill="#A4A4A4" x="60" y="51.9971001" width="60.3937143" height="4.62604714"></rect>
                                <rect id="Rectangle-131" fill="#D0D0D0" x="51.9684874" y="51.9971001" width="4.21351495" height="4.22442662"></rect>
                                <rect id="Rectangle-129" fill="#DCDCDC" x="51.9684874" y="37.3157685" width="113.764904" height="7.04071103"></rect>
                                <polygon id="Line" fill="#A4A4A4" points="4.66849964 95.5659312 41.8885009 95.5659312 41.8885009 93.8470757 4.66849964 93.8470757"></polygon>
                                <polygon id="Line" fill="#A4A4A4" points="4.66849964 84.5659312 41.8885009 84.5659312 41.8885009 82.8470757 4.66849964 82.8470757"></polygon>
                                <polygon id="Line" fill="#A4A4A4" points="4.66849964 73.5659312 41.8885009 73.5659312 41.8885009 71.8470757 4.66849964 71.8470757"></polygon>
                                <polygon id="Line" fill="#A4A4A4" points="4.66849964 63.1875484 41.8885009 63.1875484 41.8885009 61.4686928 4.66849964 61.4686928"></polygon>
                                <rect id="Rectangle-121" fill="#A4A4A4" x="4.66849964" y="46.4686928" width="37.2200012" height="8.44885324"></rect>
                                <g id="Icon-E-Mail-Center" transform="translate(4.668500, 21.826204)">
                                    <path d="M19.6630698,18.2354416 C19.6630698,19.0568579 19.0076341,19.7139909 18.1883395,19.7139909 L1.47473023,19.7139909 C0.655435659,19.7139909 0,19.0568579 0,18.2354416 L0,1.47854932 C0,0.65713303 0.655435659,0 1.47473023,0 L18.1883395,0 C19.0076341,0 19.6630698,0.65713303 19.6630698,1.47854932 L19.6630698,18.2354416 L19.6630698,18.2354416 Z" id="Shape" fill="#E20074"></path>
                                    <path d="M10.2575681,9.75842549 C10.1264809,9.85699545 9.9953938,9.8898521 9.83153489,9.8898521 C9.70044776,9.8898521 9.53658884,9.85699545 9.40550171,9.75842549 L2.94946047,5.25706424 L2.94946047,14.2926434 C2.94946047,14.5554966 3.17886295,14.7854932 3.44103721,14.7854932 L16.2220326,14.7854932 C16.4842068,14.7854932 16.7136093,14.5554966 16.7136093,14.2926434 L16.7136093,5.25706424 L10.2575681,9.75842549 L10.2575681,9.75842549 Z" id="Shape" fill="#FEF4F9"></path>
                                    <path d="M10.2575681,9.75842549 C10.1264809,9.85699545 9.9953938,9.8898521 9.83153489,9.8898521 C9.70044776,9.8898521 9.53658884,9.85699545 9.40550171,9.75842549 L2.94946047,5.25706424 L2.94946047,5.35563419 L9.43827349,10.4812718 C9.53658884,10.5469851 9.70044776,10.6126984 9.83153489,10.6126984 C9.96262202,10.6126984 10.1264809,10.5798418 10.2247963,10.4812718 L16.7136093,5.35563419 L16.7136093,5.25706424 L10.2575681,9.75842549 L10.2575681,9.75842549 Z" id="Shape" fill="#E20074" opacity="0.3"></path>
                                    <path d="M9.96262202,9.33128902 L16.3203479,4.92849772 L3.34272186,4.92849772 L9.70044776,9.33128902 C9.76599132,9.39700232 9.89707845,9.39700232 9.96262202,9.33128902 L9.96262202,9.33128902 Z" id="Shape" fill="#FEF4F9"></path>
                                </g>
                                <rect id="Rectangle-120" fill="#DCDCDC" x="0.378521615" y="0.467070775" width="171.740005" height="16.1936354"></rect>
                                <path d="M4.67110745,10.6531571 L6.78024092,10.6531571 L6.78024092,8.5388521 L4.67110745,8.5388521 L4.67110745,10.6531571 Z M4.66994842,7.2324452 L5.13645548,7.3291838 C5.24076762,6.23165095 5.52936454,5.41707124 6.00195647,4.88515418 C6.49946742,4.32883459 7.21661336,4.02525549 8.09718166,4.00056245 L8.09718166,11.5400728 C8.09718166,12.2201481 8.01112415,12.9472854 7.81148231,13.1506398 C7.64226484,13.3243626 7.35598597,13.4312689 6.95235595,13.4707778 C6.8329765,13.4809455 6.54698739,13.5387563 6.25781096,13.5387563 L6.25781096,14.0814221 L11.517171,14.0814221 L11.517171,13.5387563 C11.2279946,13.5387563 10.9420055,13.4809455 10.8223363,13.4707778 C10.418996,13.4312689 10.1327171,13.3243626 9.96349966,13.1506398 C9.76385782,12.9472854 9.6778003,12.2201481 9.6778003,11.5400728 L9.6778003,4.00056245 C10.5580788,4.02525549 11.2671116,4.32883459 11.7649123,4.88515418 C12.2372145,5.41707124 12.5261012,6.23165095 12.6301236,7.3291838 L13.0969204,7.2324452 L13.0980794,3.52035552 L4.66849964,3.52035552 L4.66994842,7.2324452 Z M10.9901049,10.6531571 L13.0992384,10.6531571 L13.0992384,8.5388521 L10.9901049,8.5388521 L10.9901049,10.6531571 Z M17.3091025,10.6531571 L19.4182359,10.6531571 L19.4182359,8.5388521 L17.3091025,8.5388521 L17.3091025,10.6531571 Z M23.6281,10.6453134 L25.7372334,10.6453134 L25.7372334,8.53071792 L23.6281,8.53071792 L23.6281,10.6453134 Z" id="Markenlabel" fill="#E20074"></path>
                                <path d="M51.9684874,31.418062 L51.9684874,22.9865959 L57.3485658,22.9865959 L57.3485658,24.5308205 L53.7783186,24.5308205 L53.7783186,26.3344748 L57.0397209,26.3344748 L57.0397209,27.8045765 L53.7783186,27.8045765 L53.7783186,29.8738374 L57.4226886,29.8738374 L57.4226886,31.418062 L51.9684874,31.418062 Z M61.2197124,27.5080854 L61.2197124,29.0276024 L58.4215775,29.0276024 L58.4215775,27.5080854 L61.2197124,27.5080854 Z M62.2803703,31.418062 L62.2803703,22.9865959 L64.7325989,22.9865959 L66.2335852,28.7619958 L67.69751,22.9865959 L70.1312079,22.9865959 L70.1312079,31.418062 L68.3954995,31.418062 L68.3954995,25.5561856 L66.9562823,31.418062 L65.4861805,31.418062 L64.0160787,25.6303084 L64.0160787,31.418062 L62.2803703,31.418062 Z M77.3811179,30.2506282 L77.3811179,31.3439392 C77.1463946,31.4427701 76.8993211,31.4921848 76.6398901,31.4921848 C76.1086742,31.4921848 75.7071798,31.2821723 75.4353949,30.8621412 C75.2336153,31.0598029 75.0483102,31.205988 74.8794741,31.3007009 C74.5212122,31.4983627 74.0805979,31.597192 73.5576179,31.597192 C72.9605147,31.597192 72.4848983,31.4654195 72.1307544,31.2018706 C71.7024873,30.8847882 71.488357,30.4482918 71.488357,29.8923681 C71.488357,29.468219 71.6160116,29.0976088 71.8713247,28.7805265 C72.1266377,28.4634441 72.4745995,28.241078 72.9152205,28.1134214 C73.3558414,27.9857649 74.0929439,27.9095839 75.12655,27.8848762 L75.12655,27.4154319 C75.12655,27.0942316 75.0565459,26.8626003 74.9165355,26.7205309 C74.7765251,26.5784615 74.5459232,26.5074279 74.2247229,26.5074279 C73.7717481,26.5074279 73.5205567,26.7236172 73.4711413,27.1560022 L71.7169022,27.1560022 C71.7539638,26.6083145 71.9804478,26.1841717 72.396361,25.8835612 C72.8287461,25.5747147 73.4176045,25.4202938 74.1629539,25.4202938 C75.2418575,25.4202938 76.0077852,25.6426599 76.46076,26.0873988 C76.6460679,26.2685888 76.7675457,26.4713949 76.825197,26.6958233 C76.8828484,26.9202517 76.9116736,27.3104219 76.9116736,27.8663455 L76.9116736,29.8120685 C76.9116736,30.0014943 76.9312336,30.1322373 76.9703541,30.2043015 C77.0094747,30.2763657 77.0805083,30.3123972 77.1834571,30.3123972 C77.2246367,30.3123972 77.2905229,30.2918078 77.3811179,30.2506282 Z M75.12655,28.7681727 C74.6735752,28.7846445 74.3214956,28.8237644 74.0703004,28.8855337 C73.8026335,28.947303 73.59468,29.0553977 73.4464337,29.2098209 C73.2981874,29.3642441 73.2240654,29.5485197 73.2240654,29.7626533 C73.2240654,29.964433 73.2827453,30.1219423 73.400107,30.235186 C73.5174686,30.3484297 73.6790959,30.4050507 73.8849935,30.4050507 C74.3173785,30.4050507 74.6529866,30.2238635 74.8918279,29.8614836 C75.0483101,29.6267603 75.12655,29.3652743 75.12655,29.0770176 L75.12655,28.7681727 Z M78.3552992,24.6728891 L78.3552992,22.9865959 L80.1960149,22.9865959 L80.1960149,24.6728891 L78.3552992,24.6728891 Z M78.3552992,31.418062 L78.3552992,25.5994239 L80.0910076,25.5994239 L80.0910076,31.418062 L78.3552992,31.418062 Z M81.849655,31.418062 L81.849655,22.9865959 L83.5853634,22.9865959 L83.5853634,31.418062 L81.849655,31.418062 Z M92.6309822,28.1504828 L94.4408134,28.1504828 C94.3749261,29.0440786 94.1237348,29.7914758 93.6872318,30.3926969 C93.0901286,31.2121695 92.2500789,31.6218996 91.1670573,31.6218996 C90.1416871,31.6218996 89.3284036,31.26982 88.7271825,30.56565 C87.9983049,29.7049979 87.6338715,28.5911084 87.6338715,27.2239481 C87.6338715,25.8814955 87.9859512,24.7902544 88.6901211,23.950192 C89.3366397,23.1801349 90.1766895,22.7951121 91.2102956,22.7951121 C92.3180249,22.7951121 93.180723,23.2398443 93.7984159,24.1293221 C94.1484419,24.6358303 94.3461007,25.1999813 94.3913982,25.8217922 L92.6000977,25.8279691 C92.5465643,25.4985329 92.4580296,25.23087 92.3344911,25.0249723 C92.0709421,24.5678796 91.6879782,24.3393366 91.185588,24.3393366 C90.6255464,24.3393366 90.1972858,24.6049406 89.9007932,25.1361565 C89.5960647,25.6879622 89.4437027,26.3777089 89.4437027,27.2054174 C89.4437027,28.0454798 89.6022415,28.7455212 89.9193239,29.3055628 C90.2075806,29.8203069 90.6234875,30.0776751 91.1670573,30.0776751 C91.5912064,30.0776751 91.9226967,29.9201658 92.1615379,29.6051424 C92.4003792,29.290119 92.556859,28.8052373 92.6309822,28.1504828 Z M100.887727,28.928772 L97.0209882,28.928772 C97.03746,29.3035057 97.0930516,29.6020528 97.1877645,29.8244223 C97.3566006,30.2320996 97.6819139,30.4359352 98.1637144,30.4359352 C98.550802,30.4359352 98.8287596,30.3082806 98.9975957,30.0529675 L100.739481,30.0529675 C100.657122,30.3165165 100.502701,30.5677078 100.276214,30.8065491 C99.7738234,31.333647 99.069664,31.597192 98.1637144,31.597192 C97.2618828,31.597192 96.5474287,31.3315881 96.0203307,30.8003722 C95.4644071,30.2362126 95.1864495,29.4826386 95.1864495,28.5396274 C95.1864495,27.6666214 95.4396998,26.9398137 95.9462079,26.3591824 C96.4897777,25.7332535 97.195996,25.4202938 98.064884,25.4202938 C98.7567001,25.4202938 99.3434996,25.6282473 99.8253,26.0441605 C100.175326,26.348889 100.434753,26.7287645 100.603589,27.1837983 C100.772425,27.638832 100.867137,28.2204841 100.887727,28.928772 Z M99.0531878,27.8910531 C99.02848,27.6233862 98.9770064,27.3969022 98.8987653,27.2115943 C98.7216933,26.7915631 98.4396178,26.5815507 98.0525302,26.5815507 C97.7725095,26.5815507 97.5419076,26.6978811 97.3607176,26.9305454 C97.1795277,27.1632098 97.0683447,27.4833758 97.0271651,27.8910531 L99.0531878,27.8910531 Z M101.775431,31.418062 L101.775431,25.5994239 L103.523493,25.5994239 L103.523493,26.136814 C103.931171,25.6591315 104.470615,25.4202938 105.141841,25.4202938 C105.920134,25.4202938 106.488403,25.679721 106.846665,26.198583 C107.069034,26.5197833 107.180217,27.022166 107.180217,27.7057462 L107.180217,31.418062 L105.444509,31.418062 L105.444509,27.9775297 C105.444509,27.5739703 105.399212,27.2898358 105.308617,27.1251177 C105.164489,26.8656867 104.92771,26.7359731 104.598274,26.7359731 C104.170007,26.7359731 103.859106,26.9439266 103.665562,27.3598399 C103.562613,27.5739734 103.51114,27.9713499 103.51114,28.5519812 L103.51114,31.418062 L101.775431,31.418062 Z M107.888792,26.686558 L107.888792,25.5994239 L108.80915,25.5994239 L108.80915,25.2226331 L109.976584,23.6660547 L110.544858,23.6660547 L110.544858,25.5994239 L111.662877,25.5994239 L111.662877,26.686558 L110.544858,26.686558 L110.544858,29.4414546 C110.544858,29.7955985 110.582949,30.0282593 110.659131,30.1394441 C110.735313,30.2506288 110.894881,30.3062203 111.13784,30.3062203 C111.273733,30.3062203 111.428154,30.2773951 111.601108,30.2197437 L111.601108,31.4613003 C111.242846,31.5354234 110.894884,31.5724844 110.557212,31.5724844 C109.83657,31.5724844 109.344482,31.3851204 109.080933,31.0103867 C108.969749,30.8539045 108.896656,30.6727173 108.861653,30.4668197 C108.826651,30.260922 108.80915,29.8985476 108.80915,29.3796856 L108.80915,26.686558 L107.888792,26.686558 Z M117.621815,28.928772 L113.755077,28.928772 C113.771548,29.3035057 113.82714,29.6020528 113.921853,29.8244223 C114.090689,30.2320996 114.416002,30.4359352 114.897803,30.4359352 C115.28489,30.4359352 115.562848,30.3082806 115.731684,30.0529675 L117.473569,30.0529675 C117.39121,30.3165165 117.236789,30.5677078 117.010302,30.8065491 C116.507912,31.333647 115.803752,31.597192 114.897803,31.597192 C113.995971,31.597192 113.281517,31.3315881 112.754419,30.8003722 C112.198496,30.2362126 111.920538,29.4826386 111.920538,28.5396274 C111.920538,27.6666214 112.173788,26.9398137 112.680296,26.3591824 C113.223866,25.7332535 113.930084,25.4202938 114.798972,25.4202938 C115.490789,25.4202938 116.077588,25.6282473 116.559388,26.0441605 C116.909414,26.348889 117.168842,26.7287645 117.337678,27.1837983 C117.506514,27.638832 117.601225,28.2204841 117.621815,28.928772 Z M115.787276,27.8910531 C115.762568,27.6233862 115.711095,27.3969022 115.632854,27.2115943 C115.455782,26.7915631 115.173706,26.5815507 114.786619,26.5815507 C114.506598,26.5815507 114.275996,26.6978811 114.094806,26.9305454 C113.913616,27.1632098 113.802433,27.4833758 113.761254,27.8910531 L115.787276,27.8910531 Z M118.50952,31.418062 L118.50952,25.5994239 L120.245228,25.5994239 L120.245228,26.3406517 C120.652905,25.7270767 121.17176,25.4202938 121.801806,25.4202938 C121.950053,25.4202938 122.102415,25.4388243 122.258897,25.4758859 L122.258897,26.9830491 C122.015938,26.9212798 121.810043,26.8903956 121.641207,26.8903956 C121.07293,26.8903956 120.671435,27.139528 120.436712,27.6378003 C120.309055,27.9095852 120.245228,28.3543174 120.245228,28.9720103 L120.245228,31.418062 L118.50952,31.418062 Z" id="E-Mail-Center" fill="#4B4B4B"></path>
                            </g>
                        </g>
                        <g id="Tablet" transform="translate(0.000000, 75.221914)">
                            <path d="M0.236982581,4.89980874 C0.236982581,2.20892338 2.48270881,0.00728990011 5.22748531,0.00728990011 L122.504299,0.00728990011 C125.249076,0.00728990011 127.494802,2.20892338 127.494802,4.89980874 L127.494802,83.1801103 C127.494802,85.8709956 125.249076,88.0726291 122.504299,88.0726291 L5.22748531,88.0726291 C2.48270881,88.0726291 0.236982581,85.8709956 0.236982581,83.1801103 L0.236982581,4.89980874 L0.236982581,4.89980874 L0.236982581,4.89980874 Z" id="Shape" fill="#4B4B4B"></path>
                            <polygon id="Screen" fill="#FFFFFF" points="120.009048 7.0969064 120.009048 80.4846891 7.72273667 80.4846891 7.72273667 7.0969064"></polygon>
                            <path d="M67.8803129,61.3083378 L51.5406239,61.3083378 L51.5406239,72.3432421 C51.5406239,72.6713069 51.8129521,72.9397235 52.1457976,72.9397235 L67.8803129,72.9397235 C68.2131585,72.9397235 68.4854866,72.6713069 68.4854866,72.3432421 L68.4854866,61.9048191 C68.4854866,61.5767544 68.2131585,61.3083378 67.8803129,61.3083378 Z M58.5001211,60.0068487 L56.9871869,58.5156454 L52.1457976,58.5156454 C51.8129521,58.5156454 51.5406239,58.784062 51.5406239,59.1121268 L51.5406239,60.0068487 L58.5001211,60.0068487 Z" id="Icon-Folder" fill="#53BAF2"></path>
                            <polygon id="Line" fill="#A4A4A4" points="75.2390624 46.8393532 99.8578518 46.8393532 99.8578518 43.4016421 75.2390624 43.4016421"></polygon>
                            <polygon id="Line" fill="#A4A4A4" points="75.2390624 67.2845787 103.388032 67.2845787 103.388032 63.8468677 75.2390624 63.8468677"></polygon>
                            <path d="M67.8803129,40.1581045 L51.5406239,40.1581045 L51.5406239,51.1930089 C51.5406239,51.5210736 51.8129521,51.7894902 52.1457976,51.7894902 L67.8803129,51.7894902 C68.2131585,51.7894902 68.4854866,51.5210736 68.4854866,51.1930089 L68.4854866,40.7545858 C68.4854866,40.4265211 68.2131585,40.1581045 67.8803129,40.1581045 Z M58.5001211,38.8566154 L56.9871869,37.3654121 L52.1457976,37.3654121 C51.8129521,37.3654121 51.5406239,37.6338287 51.5406239,37.9618935 L51.5406239,38.8566154 L58.5001211,38.8566154 Z" id="Icon-Folder" fill="#53BAF2"></path>
                            <rect id="Rectangle-129" fill="#DCDCDC" x="43.0681926" y="26.0852877" width="72.7217023" height="6.34506999"></rect>
                            <path d="M44.5313514,20.5751166 L44.5313514,13.0861838 L46.7094513,13.0861838 L48.0426459,18.2159656 L49.3429222,13.0861838 L51.5045629,13.0861838 L51.5045629,20.5751166 L49.9628851,20.5751166 L49.9628851,15.3685253 L48.6845545,20.5751166 L47.3787918,20.5751166 L46.0730292,15.434362 L46.0730292,20.5751166 L44.5313514,20.5751166 Z M57.9441638,19.5381875 L57.9441638,20.5092799 C57.7356796,20.5970627 57.5162259,20.6409534 57.285796,20.6409534 C56.8139635,20.6409534 56.4573512,20.4544178 56.2159485,20.0813409 C56.0367253,20.2569065 55.872135,20.3867499 55.7221727,20.4708751 C55.40396,20.6464407 55.0126009,20.7342222 54.5480836,20.7342222 C54.0177292,20.7342222 53.5952808,20.6171802 53.2807257,20.3830927 C52.9003336,20.1014562 52.7101404,19.7137547 52.7101404,19.2199764 C52.7101404,18.8432419 52.8235248,18.5140613 53.050297,18.2324248 C53.2770693,17.9507884 53.5861332,17.75328 53.9774982,17.6398939 C54.3688632,17.5265078 55.0235668,17.4588429 55.9416286,17.4368972 L55.9416286,17.019931 C55.9416286,16.7346368 55.87945,16.528899 55.7550911,16.4027112 C55.6307321,16.2765234 55.4259086,16.2134305 55.1406145,16.2134305 C54.7382767,16.2134305 54.5151654,16.4054525 54.471274,16.7895023 L52.9131371,16.7895023 C52.9460556,16.3030392 53.1472215,15.9263104 53.5166408,15.6593043 C53.9006906,15.3849831 54.4237219,15.2478245 55.0857506,15.2478245 C56.0440461,15.2478245 56.7243527,15.4453328 57.1266905,15.8403555 C57.2912833,16.0012906 57.3991813,16.1814255 57.450388,16.3807656 C57.5015946,16.5801057 57.5271975,16.9266597 57.5271975,17.420438 L57.5271975,19.1486533 C57.5271975,19.3169036 57.5445709,19.4330312 57.5793183,19.4970395 C57.6140657,19.5610478 57.6771586,19.5930515 57.768599,19.5930515 C57.8051752,19.5930515 57.8636962,19.5747637 57.9441638,19.5381875 Z M55.9416286,18.221452 C55.5392908,18.2360825 55.2265692,18.2708293 55.0034546,18.3256936 C54.7657095,18.3805579 54.5810026,18.4765688 54.4493284,18.6137295 C54.3176542,18.7508901 54.2518181,18.914566 54.2518181,19.1047621 C54.2518181,19.2839853 54.3039384,19.423887 54.4081805,19.5244715 C54.5124225,19.625056 54.6559818,19.6753474 54.8388627,19.6753474 C55.2229124,19.6753474 55.5210037,19.5144147 55.7331455,19.1925444 C55.8721349,18.9840603 55.9416286,18.7518051 55.9416286,18.4957719 L55.9416286,18.221452 Z M58.4310232,21.3102939 L60.0659697,21.3102939 C60.1500948,21.4968324 60.3786925,21.5901002 60.7517694,21.5901002 C61.1431344,21.5901002 61.4183659,21.4803734 61.5774722,21.2609164 C61.7365785,21.0414594 61.8161305,20.6592441 61.8161305,20.1142592 L61.8161305,19.8838305 C61.4759722,20.2861684 61.026092,20.4873343 60.4664767,20.4873343 C59.8117633,20.4873343 59.2850744,20.2660518 58.8863942,19.8234802 C58.4730835,19.3626205 58.2664312,18.7225471 58.2664312,17.903241 C58.2664312,17.0875924 58.4730835,16.4420328 58.8863942,15.9665426 C59.3033625,15.4873948 59.8428528,15.2478245 60.5048815,15.2478245 C61.053524,15.2478245 61.4906026,15.4544768 61.8161305,15.8677874 L61.8161305,15.40693 L63.3248899,15.40693 L63.3248899,19.834453 C63.3248899,20.3099431 63.2928862,20.6903296 63.2288779,20.9756237 C63.1648696,21.2609178 63.0542284,21.5114608 62.8969509,21.7272602 C62.4726673,22.3088212 61.7813881,22.5995974 60.8230925,22.5995974 C60.1354606,22.5995974 59.5868263,22.4889561 59.1771732,22.2676703 C58.7675202,22.0463845 58.518806,21.7272622 58.4310232,21.3102939 Z M60.8066333,16.372536 C60.4993935,16.372536 60.2598232,16.5023795 60.0879152,16.7620703 C59.9013768,17.0400491 59.808109,17.3984902 59.808109,17.8374042 C59.808109,18.3128944 59.8977192,18.6932808 60.0769425,18.9785749 C60.2561657,19.263869 60.495736,19.4065139 60.7956605,19.4065139 C61.1102156,19.4065139 61.3625874,19.2656978 61.5527834,18.9840613 C61.7429795,18.7024248 61.8380761,18.3275247 61.8380761,17.8593498 C61.8380761,17.4058053 61.7466371,17.049193 61.5637562,16.7895023 C61.3735602,16.5115234 61.1211884,16.372536 60.8066333,16.372536 Z M69.160987,18.3640984 L65.7265021,18.3640984 C65.7411325,18.6969415 65.7905096,18.9621147 65.8746348,19.159626 C66.0245971,19.5217301 66.3135445,19.7027794 66.7414856,19.7027794 C67.0853016,19.7027794 67.332187,19.589395 67.4821493,19.3626228 L69.0293135,19.3626228 C68.9561611,19.5967102 68.8190026,19.8198215 68.6178336,20.0319633 C68.1716044,20.5001382 67.5461613,20.7342222 66.7414856,20.7342222 C65.9404676,20.7342222 65.3058806,20.4983094 64.8377056,20.0264769 C64.3439274,19.5253834 64.097042,18.8560496 64.097042,18.0184553 C64.097042,17.2430406 64.321982,16.5974809 64.7718689,16.081757 C65.2546743,15.5257992 65.8819461,15.2478245 66.6537033,15.2478245 C67.2681829,15.2478245 67.7893854,15.4325314 68.2173266,15.8019507 C68.528224,16.0726143 68.7586504,16.4100244 68.9086127,16.814191 C69.058575,17.2183577 69.1426989,17.7349883 69.160987,18.3640984 Z M67.5315269,17.4423836 C67.5095812,17.2046385 67.4638617,17.0034726 67.394367,16.8388798 C67.2370894,16.4658029 66.9865464,16.2792673 66.6427305,16.2792673 C66.3940125,16.2792673 66.1891891,16.3825934 66.0282539,16.5892487 C65.8673188,16.7959041 65.7685646,17.0802795 65.7319885,17.4423836 L67.5315269,17.4423836 Z M69.9495983,20.5751166 L69.9495983,15.40693 L71.5022488,15.40693 L71.5022488,15.8842466 C71.8643529,15.4599631 72.3434935,15.2478245 72.939685,15.2478245 C73.6309746,15.2478245 74.1357181,15.4782509 74.4539308,15.9391106 C74.6514421,16.2244047 74.7501962,16.6706273 74.7501962,17.2777916 L74.7501962,20.5751166 L73.2085185,20.5751166 L73.2085185,17.5191931 C73.2085185,17.1607467 73.1682853,16.9083749 73.0878177,16.7620703 C72.9598012,16.5316404 72.7494914,16.4164272 72.456882,16.4164272 C72.0764899,16.4164272 71.800344,16.6011341 71.628436,16.9705534 C71.5369955,17.1607494 71.491276,17.5137042 71.491276,18.0294281 L71.491276,20.5751166 L69.9495983,20.5751166 Z M75.379702,16.372536 L75.379702,15.40693 L76.1971752,15.40693 L76.1971752,15.0722598 L77.2341044,13.6896876 L77.738853,13.6896876 L77.738853,15.40693 L78.731891,15.40693 L78.731891,16.372536 L77.738853,16.372536 L77.738853,18.8194694 C77.738853,19.1340244 77.7726854,19.3406767 77.8403513,19.4394323 C77.9080172,19.538188 78.0497478,19.5875651 78.2655472,19.5875651 C78.3862485,19.5875651 78.5234071,19.5619621 78.677027,19.5107555 L78.677027,20.6135214 C78.3588143,20.6793585 78.0497503,20.7122766 77.7498258,20.7122766 C77.1097428,20.7122766 76.6726642,20.5458575 76.4385767,20.2130144 C76.3398211,20.074025 76.2748994,19.9130922 76.2438096,19.7302114 C76.2127199,19.5473306 76.1971752,19.2254651 76.1971752,18.7646054 L76.1971752,16.372536 L75.379702,16.372536 Z M84.3924234,19.5381875 L84.3924234,20.5092799 C84.1839392,20.5970627 83.9644855,20.6409534 83.7340556,20.6409534 C83.2622231,20.6409534 82.9056108,20.4544178 82.6642081,20.0813409 C82.4849849,20.2569065 82.3203946,20.3867499 82.1704323,20.4708751 C81.8522196,20.6464407 81.4608605,20.7342222 80.9963432,20.7342222 C80.4659888,20.7342222 80.0435404,20.6171802 79.7289853,20.3830927 C79.3485932,20.1014562 79.1584,19.7137547 79.1584,19.2199764 C79.1584,18.8432419 79.2717844,18.5140613 79.4985566,18.2324248 C79.7253289,17.9507884 80.0343929,17.75328 80.4257578,17.6398939 C80.8171228,17.5265078 81.4718264,17.4588429 82.3898882,17.4368972 L82.3898882,17.019931 C82.3898882,16.7346368 82.3277097,16.528899 82.2033507,16.4027112 C82.0789917,16.2765234 81.8741683,16.2134305 81.5888742,16.2134305 C81.1865363,16.2134305 80.963425,16.4054525 80.9195336,16.7895023 L79.3613967,16.7895023 C79.3943152,16.3030392 79.5954812,15.9263104 79.9649004,15.6593043 C80.3489502,15.3849831 80.8719815,15.2478245 81.5340102,15.2478245 C82.4923058,15.2478245 83.1726123,15.4453328 83.5749501,15.8403555 C83.7395429,16.0012906 83.8474409,16.1814255 83.8986476,16.3807656 C83.9498542,16.5801057 83.9754571,16.9266597 83.9754571,17.420438 L83.9754571,19.1486533 C83.9754571,19.3169036 83.9928306,19.4330312 84.0275779,19.4970395 C84.0623253,19.5610478 84.1254182,19.5930515 84.2168586,19.5930515 C84.2534348,19.5930515 84.3119558,19.5747637 84.3924234,19.5381875 Z M82.3898882,18.221452 C81.9875504,18.2360825 81.6748288,18.2708293 81.4517142,18.3256936 C81.2139691,18.3805579 81.0292622,18.4765688 80.897588,18.6137295 C80.7659138,18.7508901 80.7000777,18.914566 80.7000777,19.1047621 C80.7000777,19.2839853 80.752198,19.423887 80.8564401,19.5244715 C80.9606821,19.625056 81.1042414,19.6753474 81.2871223,19.6753474 C81.671172,19.6753474 81.9692633,19.5144147 82.1814051,19.1925444 C82.3203945,18.9840603 82.3898882,18.7518051 82.3898882,18.4957719 L82.3898882,18.221452 Z M89.4988296,17.6728123 L91.1063441,17.6728123 C91.0478223,18.4665151 90.824711,19.1303626 90.4370036,19.6643746 C89.9066492,20.3922404 89.1605066,20.7561678 88.1985534,20.7561678 C87.2878068,20.7561678 86.5654383,20.4434462 86.0314263,19.8179938 C85.3840281,19.0535519 85.0603339,18.0641814 85.0603339,16.8498526 C85.0603339,15.6574696 85.3730554,14.6882157 85.9985079,13.9420619 C86.5727537,13.2580875 87.3188963,12.9161055 88.2369581,12.9161055 C89.220857,12.9161055 89.9871163,13.3111222 90.5357588,14.1011674 C90.8466562,14.5510542 91.0222192,15.0521402 91.0624529,15.6044404 L89.4713976,15.6099268 C89.4238486,15.3173174 89.345211,15.0795759 89.2354825,14.8966951 C89.001395,14.4906996 88.6612418,14.2877049 88.2150125,14.2877049 C87.7175767,14.2877049 87.3371902,14.5236177 87.0738418,14.9954502 C86.8031782,15.4855709 86.6678484,16.0982125 86.6678484,16.8333934 C86.6678484,17.5795472 86.8086645,18.2013328 87.090301,18.6987686 C87.3463342,19.1559707 87.7157479,19.3845684 88.1985534,19.3845684 C88.5752879,19.3845684 88.8697216,19.2446666 89.0818634,18.9648589 C89.2940052,18.6850512 89.4329925,18.2543733 89.4988296,17.6728123 Z M92.2515712,20.5751166 L92.2515712,13.0861838 L93.793249,13.0861838 L93.793249,20.5751166 L92.2515712,20.5751166 Z M97.4128415,15.2478245 C98.1882562,15.2478245 98.8136993,15.4910524 99.2891895,15.9775154 C99.7793101,16.4712937 100.024367,17.1534289 100.024367,18.0239417 C100.024367,18.8688512 99.7646799,19.5436714 99.2452983,20.0484225 C98.7734657,20.5056246 98.1608241,20.7342222 97.4073551,20.7342222 C96.606337,20.7342222 95.9662637,20.4781928 95.4871159,19.9661265 C95.0152833,19.465033 94.7793706,18.8048431 94.7793706,17.9855369 C94.7793706,17.1845189 95.0079682,16.5389592 95.4651703,16.0488386 C95.9626062,15.5148265 96.6118234,15.2478245 97.4128415,15.2478245 Z M97.3470047,16.3286448 C97.0324496,16.3286448 96.782821,16.4776905 96.5981114,16.7757863 C96.4134018,17.073882 96.3210483,17.4771282 96.3210483,17.9855369 C96.3210483,18.5012609 96.4106586,18.9054215 96.5898818,19.1980308 C96.7727626,19.501613 97.0306208,19.6534018 97.3634639,19.6534018 C97.6780189,19.6534018 97.9230756,19.5144145 98.0986412,19.2364356 C98.2924949,18.9291958 98.3894202,18.5195489 98.3894202,18.0074825 C98.3894202,17.4954162 98.3034675,17.0949132 98.1315596,16.8059614 C97.9450211,16.4877488 97.6835054,16.3286448 97.3470047,16.3286448 Z M105.575171,15.40693 L105.575171,20.5751166 L104.022521,20.5751166 L104.022521,20.0978 C103.664074,20.5220836 103.184934,20.7342222 102.585084,20.7342222 C101.890137,20.7342222 101.385394,20.5037958 101.070839,20.0429361 C100.873327,19.757642 100.774573,19.3114194 100.774573,18.704255 L100.774573,15.40693 L102.316251,15.40693 L102.316251,18.4628535 C102.316251,18.8213 102.356484,19.0736718 102.436952,19.2199764 C102.564968,19.4504063 102.773449,19.5656195 103.062401,19.5656195 C103.446451,19.5656195 103.722597,19.3809126 103.890847,19.0114933 C103.982288,18.8176396 104.028007,18.4646849 104.028007,17.9526186 L104.028007,15.40693 L105.575171,15.40693 Z M111.570374,20.5751166 L109.968346,20.5751166 L109.968346,20.1416912 C109.62453,20.5367138 109.169163,20.7342222 108.602233,20.7342222 C107.888997,20.7342222 107.323904,20.4361309 106.906936,19.8399394 C106.555805,19.3351882 106.380242,18.7006013 106.380242,17.9361594 C106.380242,17.109538 106.585065,16.458492 106.994718,15.9830018 C107.19223,15.7562296 107.4318,15.577009 107.713436,15.4453348 C108.002388,15.3136606 108.302308,15.2478245 108.613206,15.2478245 C109.176478,15.2478245 109.648304,15.4453328 110.028696,15.8403555 L110.028696,13.0861838 L111.570374,13.0861838 L111.570374,20.5751166 Z M108.942389,16.4164272 C108.631492,16.4164272 108.388264,16.5535858 108.212698,16.827907 C108.018845,17.1205164 107.921919,17.4954165 107.921919,17.9526186 C107.921919,18.3695869 107.996899,18.7280279 108.146862,19.0279525 C108.322427,19.3863989 108.585772,19.5656195 108.936903,19.5656195 C109.251458,19.5656195 109.502001,19.4220602 109.688539,19.1349373 C109.875078,18.8478143 109.968346,18.462856 109.968346,17.9800505 C109.968346,17.5118756 109.878735,17.1369755 109.699512,16.855339 C109.509316,16.5627297 109.256944,16.4164272 108.942389,16.4164272 Z" id="MagentaCloud" fill="#4B4B4B"></path>
                            <polygon id="Line" fill="#A4A4A4" points="11.4255977 70.3026937 40.8210622 70.3026937 40.8210622 68.5838382 11.4255977 68.5838382"></polygon>
                            <polygon id="Line" fill="#A4A4A4" points="11.4255977 59.7275771 40.8210622 59.7275771 40.8210622 58.0087216 11.4255977 58.0087216"></polygon>
                            <rect id="Rectangle-121" fill="#A4A4A4" x="12.0026111" y="43.0054744" width="28.2414378" height="8.46009332"></rect>
                            <path d="M20.8327673,37.339874 C20.5996425,37.3673456 20.3647559,37.3810814 20.1298693,37.3810814 C18.6947858,37.3810814 17.3182772,36.8578845 16.2639302,35.8986901 C16.0589183,35.9277566 15.8539064,35.9568231 15.6488945,35.9568231 C14.0087991,35.9568231 12.6615779,34.6197642 12.6615779,32.9920404 C12.6615779,31.567782 13.6866375,30.3760556 15.0631461,30.0853907 C15.268158,28.7483318 16.4396547,27.7019379 17.8747382,27.7019379 C18.1968997,27.7019379 18.5190613,27.7310044 18.8119355,27.8472704 C19.7491328,26.539278 21.2720785,25.7544826 22.9121739,25.7544826 C25.3137421,25.7544826 27.3345738,27.4112729 27.8031725,29.7075262 C29.2089685,30.0563242 30.2340281,31.3061835 30.2047407,32.8176414 C30.2047407,34.5616312 28.7696573,35.9858896 26.9831248,35.9858896 C26.8659752,35.9858896 26.7488255,35.9568231 26.6316758,35.9568231 C26.0459275,36.538153 25.2258798,36.886951 24.3765447,36.886951 C23.9785438,36.886951 23.5565045,36.8153799 23.1757606,36.6506241 L23.1757606,33.0792399 L25.518754,33.0792399 L22.0042639,29.5912602 L18.4897739,33.0792399 L20.8327673,33.0792399 L20.8327673,37.339874 Z" id="Combined-Shape" fill="#E20074"></path>
                            <path d="M11.299197,17.0123996 L13.4196936,17.0123996 L13.4196936,14.8952819 L11.299197,14.8952819 L11.299197,17.0123996 Z M11.2980317,13.587137 L11.7670521,13.6840043 C11.8719262,12.5850113 12.162078,11.7693479 12.6372161,11.2367232 C13.1374074,10.6796635 13.858417,10.3756805 14.7437295,10.3509547 L14.7437295,17.9004953 C14.7437295,18.5814754 14.6572083,19.30958 14.4564909,19.513205 C14.2863617,19.6871589 13.9985405,19.7942074 13.5927359,19.8337689 C13.4727133,19.8439501 13.1851834,19.9018378 12.894449,19.9018378 L12.894449,20.4452255 L18.1821443,20.4452255 L18.1821443,19.9018378 C17.8914099,19.9018378 17.60388,19.8439501 17.4835661,19.8337689 C17.0780528,19.7942074 16.7902316,19.6871589 16.6201024,19.513205 C16.419385,19.30958 16.3328639,18.5814754 16.3328639,17.9004953 L16.3328639,10.3509547 C17.217885,10.3756805 17.9307377,10.6796635 18.4312204,11.2367232 C18.9060671,11.7693479 19.1965102,12.5850113 19.301093,13.6840043 L19.7704048,13.587137 L19.77157,9.87010887 L11.2965751,9.87010887 L11.2980317,13.587137 Z M17.6522387,17.0123996 L19.7727353,17.0123996 L19.7727353,14.8952819 L17.6522387,14.8952819 L17.6522387,17.0123996 Z M24.0052804,17.0123996 L26.125777,17.0123996 L26.125777,14.8952819 L24.0052804,14.8952819 L24.0052804,17.0123996 Z M30.3583221,17.0045455 L32.4788187,17.0045455 L32.4788187,14.8871369 L30.3583221,14.8871369 L30.3583221,17.0045455 Z" id="Markenlabel" fill="#E20074"></path>
                        </g>
                        <g id="Handy" transform="translate(226.260361, 58.603119)">
                            <path d="M6.00812255,107.385996 C9.76319914,108.669216 18.775383,110.97901 29.2895974,110.97901 C36.7997506,110.97901 45.561596,109.695791 52.5710723,107.385996 C58.078518,105.58949 58.078518,99.6866818 58.078518,99.6866818 L58.078518,12.4277826 C58.078518,12.4277826 58.078518,6.01168708 52.5710723,3.95853651 C45.3112576,1.64874212 36.2990737,0.365523018 29.2895974,0.365523018 C21.7794442,0.365523018 13.0175989,1.64874212 6.00812255,3.95853651 C0.500676879,5.75504326 0.500676879,12.4277826 0.500676879,12.4277826 L0.500676879,99.6866818 C0.500676879,99.6866818 0.500676879,105.332846 6.00812255,107.385996 L6.00812255,107.385996 Z" id="Shape" fill="#4B4B4B"></path>
                            <rect id="Rectangle-path" fill="#FFFFFF" x="6.00812255" y="12.9410702" width="46.8132882" height="81.0994475"></rect>
                            <path d="M34.7970431,8.83476911 C34.7970431,9.09141293 34.5467047,9.34805675 34.2963662,9.34805675 L24.2828286,9.34805675 C24.0324902,9.34805675 23.7821518,9.09141293 23.7821518,8.83476911 L23.7821518,6.01168708 C23.7821518,5.75504326 24.0324902,5.49839944 24.2828286,5.49839944 L34.2963662,5.49839944 C34.5467047,5.49839944 34.7970431,5.75504326 34.7970431,6.01168708 L34.7970431,8.83476911 L34.7970431,8.83476911 Z" id="Shape" fill="#262626"></path>
                            <path d="M32.7943356,103.536339 C32.7943356,104.562914 32.0433203,105.332846 31.0419665,105.332846 L27.5372284,105.332846 C26.5358746,105.332846 25.7848593,104.562914 25.7848593,103.536339 L25.7848593,99.9433256 C25.7848593,98.9167503 26.5358746,98.1468188 27.5372284,98.1468188 L31.0419665,98.1468188 C32.0433203,98.1468188 32.7943356,98.9167503 32.7943356,99.9433256 L32.7943356,103.536339 L32.7943356,103.536339 Z" id="Shape" fill="#262626"></path>
                            <rect id="Rectangle-129" fill="#DCDCDC" x="9.79550115" y="68.7516904" width="18.4039007" height="17.6790061"></rect>
                            <rect id="Rectangle-129" fill="#DCDCDC" x="31.2164348" y="68.7516904" width="18.4039007" height="17.6790061"></rect>
                            <rect id="Rectangle-129" fill="#DCDCDC" x="9.79550115" y="48.4535723" width="18.4039007" height="17.6790061"></rect>
                            <rect id="Rectangle-129" fill="#DCDCDC" x="31.2164348" y="48.4535723" width="18.4039007" height="17.6790061"></rect>
                            <path d="M22.9877423,33.4532606 L22.9877423,29.1900469 L21.7221605,29.1900469 L21.7221605,28.2341693 L25.3812597,28.2341693 L25.3812597,29.1900469 L24.1080308,29.1900469 L24.1080308,33.4532606 L22.9877423,33.4532606 Z M28.8273639,31.9123861 L26.4338465,31.9123861 C26.4440426,32.1443468 26.4784539,32.329148 26.5370813,32.466795 C26.6415911,32.719148 26.8429606,32.8453225 27.1411959,32.8453225 C27.3808037,32.8453225 27.55286,32.7663041 27.6573698,32.6082649 L28.7355996,32.6082649 C28.6846192,32.7714022 28.5890324,32.92689 28.4488364,33.0747331 C28.137856,33.4010076 27.7019802,33.5641424 27.1411959,33.5641424 C26.5829606,33.5641424 26.1407124,33.3997331 25.8144379,33.0709096 C25.4703203,32.721694 25.298264,32.2552304 25.298264,31.6715049 C25.298264,31.1311128 25.4550264,30.6812176 25.7685558,30.3218059 C26.1050264,29.9343549 26.5421766,29.7406323 27.0800198,29.7406323 C27.508255,29.7406323 27.8714849,29.8693559 28.1697201,30.1268068 C28.3863868,30.3154343 28.5469726,30.5505778 28.6514824,30.8322445 C28.7559922,31.1139111 28.8146188,31.4739547 28.8273639,31.9123861 Z M27.6917814,31.2700364 C27.6764873,31.1043501 27.644625,30.9641561 27.5961936,30.8494503 C27.4865858,30.5894503 27.3119806,30.4594522 27.0723727,30.4594522 C26.8990394,30.4594522 26.7562965,30.5314609 26.6441396,30.6754805 C26.5319827,30.8195001 26.4631602,31.0176834 26.4376701,31.2700364 L27.6917814,31.2700364 Z M29.3637769,33.4532606 L29.3637769,28.2341693 L30.4381832,28.2341693 L30.4381832,33.4532606 L29.3637769,33.4532606 Z M34.6719305,31.9123861 L32.2784132,31.9123861 C32.2886093,32.1443468 32.3230205,32.329148 32.381648,32.466795 C32.4861578,32.719148 32.6875273,32.8453225 32.9857626,32.8453225 C33.2253704,32.8453225 33.3974266,32.7663041 33.5019364,32.6082649 L34.5801663,32.6082649 C34.5291859,32.7714022 34.4335991,32.92689 34.293403,33.0747331 C33.9824226,33.4010076 33.5465468,33.5641424 32.9857626,33.5641424 C32.4275273,33.5641424 31.985279,33.3997331 31.6590045,33.0709096 C31.3148869,32.721694 31.1428307,32.2552304 31.1428307,31.6715049 C31.1428307,31.1311128 31.299593,30.6812176 31.6131224,30.3218059 C31.949593,29.9343549 32.3867433,29.7406323 32.9245864,29.7406323 C33.3528217,29.7406323 33.7160515,29.8693559 34.0142868,30.1268068 C34.2309534,30.3154343 34.3915392,30.5505778 34.496049,30.8322445 C34.6005588,31.1139111 34.6591854,31.4739547 34.6719305,31.9123861 Z M33.536348,31.2700364 C33.5210539,31.1043501 33.4891916,30.9641561 33.4407603,30.8494503 C33.3311524,30.5894503 33.1565472,30.4594522 32.9169394,30.4594522 C32.743606,30.4594522 32.6008631,30.5314609 32.4887062,30.6754805 C32.3765494,30.8195001 32.3077269,31.0176834 32.2822367,31.2700364 L33.536348,31.2700364 Z M35.3115783,33.4532606 L35.3115783,30.55504 L34.7877574,30.55504 L34.7877574,29.8515141 L35.3115783,29.8515141 L35.3115783,29.5303393 C35.3115783,29.2499471 35.3300584,29.0332837 35.3670192,28.8803425 C35.40398,28.7274014 35.4708907,28.5948544 35.5677535,28.4826975 C35.7793221,28.2354426 36.124709,28.111817 36.6039247,28.111817 C36.6192188,28.111817 36.7734322,28.1207384 37.0665694,28.1385816 L37.0665694,28.9185776 C36.9442165,28.9032835 36.8422573,28.8956366 36.7606886,28.8956366 C36.6102965,28.8956366 36.510249,28.9313223 36.4605431,29.0026949 C36.4108372,29.0740674 36.3859846,29.2193593 36.3859846,29.438575 L36.3859846,29.8515141 L37.0206873,29.8515141 L37.0206873,30.55504 L36.3859846,30.55504 L36.3859846,33.4532606 L35.3115783,33.4532606 Z M38.9756226,29.7406323 C39.5160147,29.7406323 39.9518905,29.9101396 40.283263,30.2491592 C40.6248316,30.5932768 40.7956134,31.0686618 40.7956134,31.6753284 C40.7956134,32.2641519 40.6146357,32.734439 40.252675,33.0862037 C39.9238514,33.4048311 39.4968971,33.5641424 38.9717991,33.5641424 C38.4135638,33.5641424 37.9674921,33.3857138 37.6335705,33.028851 C37.304747,32.6796354 37.1403377,32.2195442 37.1403377,31.6485639 C37.1403377,31.0903286 37.299649,30.6404334 37.6182765,30.2988648 C37.9649431,29.926708 38.4173873,29.7406323 38.9756226,29.7406323 Z M38.9297405,30.4938638 C38.7105248,30.4938638 38.5365568,30.5977348 38.4078313,30.8054799 C38.2791058,31.013225 38.2147441,31.2942502 38.2147441,31.6485639 C38.2147441,32.0079756 38.2771941,32.289638 38.4020961,32.4935596 C38.529547,32.7051282 38.7092502,32.8109109 38.941211,32.8109109 C39.1604267,32.8109109 39.3312084,32.7140497 39.4535613,32.5203242 C39.5886594,32.3062065 39.6562074,32.0207206 39.6562074,31.6638579 C39.6562074,31.3069952 39.5963063,31.0278817 39.4765024,30.8265092 C39.3465024,30.6047445 39.1642502,30.4938638 38.9297405,30.4938638 Z M41.3434969,33.4532606 L41.3434969,29.8515141 L42.4255503,29.8515141 L42.4255503,30.1841595 C42.6779032,29.8884732 43.0118198,29.7406323 43.4273099,29.7406323 C43.9090746,29.7406323 44.260834,29.9012181 44.4825987,30.2223946 C44.6202458,30.4212181 44.6890683,30.7321938 44.6890683,31.1553311 L44.6890683,33.4532606 L43.6146619,33.4532606 L43.6146619,31.3235655 C43.6146619,31.0737616 43.5866231,30.8978819 43.5305447,30.7959211 C43.441329,30.6353329 43.2947626,30.55504 43.090841,30.55504 C42.825743,30.55504 42.6332949,30.6837635 42.513491,30.9412145 C42.4497655,31.0737635 42.4179033,31.3197402 42.4179033,31.679152 L42.4179033,33.4532606 L41.3434969,33.4532606 Z M45.5504796,29.2779876 L45.5504796,28.2341693 L46.6898857,28.2341693 L46.6898857,29.2779876 L45.5504796,29.2779876 Z M45.5504796,33.4532606 L45.5504796,29.8515141 L46.624886,29.8515141 L46.624886,33.4532606 L45.5504796,33.4532606 Z M50.8815743,31.9123861 L48.488057,31.9123861 C48.4982531,32.1443468 48.5326643,32.329148 48.5912918,32.466795 C48.6958016,32.719148 48.8971711,32.8453225 49.1954064,32.8453225 C49.4350142,32.8453225 49.6070704,32.7663041 49.7115802,32.6082649 L50.7898101,32.6082649 C50.7388297,32.7714022 50.6432429,32.92689 50.5030468,33.0747331 C50.1920665,33.4010076 49.7561907,33.5641424 49.1954064,33.5641424 C48.6371711,33.5641424 48.1949229,33.3997331 47.8686484,33.0709096 C47.5245307,32.721694 47.3524745,32.2552304 47.3524745,31.6715049 C47.3524745,31.1311128 47.5092368,30.6812176 47.8227662,30.3218059 C48.1592368,29.9343549 48.5963871,29.7406323 49.1342302,29.7406323 C49.5624655,29.7406323 49.9256953,29.8693559 50.2239306,30.1268068 C50.4405973,30.3154343 50.6011831,30.5505778 50.7056929,30.8322445 C50.8102027,31.1139111 50.8688292,31.4739547 50.8815743,31.9123861 Z M49.7459918,31.2700364 C49.7306977,31.1043501 49.6988354,30.9641561 49.6504041,30.8494503 C49.5407962,30.5894503 49.366191,30.4594522 49.1265832,30.4594522 C48.9532499,30.4594522 48.8105069,30.5314609 48.6983501,30.6754805 C48.5861932,30.8195001 48.5173707,31.0176834 48.4918805,31.2700364 L49.7459918,31.2700364 Z M24.9300855,39.4306238 L26.0503739,39.4306238 C26.0095896,39.983761 25.8541018,40.4464011 25.5839057,40.818558 C25.2142979,41.3258128 24.6943057,41.5794365 24.0239136,41.5794365 C23.3892077,41.5794365 22.8857839,41.3614986 22.5136271,40.9256163 C22.0624506,40.3928712 21.8368658,39.7033717 21.8368658,38.8570973 C21.8368658,38.0261169 22.0548037,37.3506369 22.490686,36.8306369 C22.8908821,36.3539703 23.4108743,36.1156405 24.0506782,36.1156405 C24.7363644,36.1156405 25.270376,36.3909305 25.6527289,36.9415187 C25.8693955,37.2550481 25.9917466,37.6042585 26.0197859,37.9891605 L24.9109679,37.992984 C24.8778307,37.7890624 24.8230276,37.6233787 24.746557,37.4959277 C24.5834197,37.2129865 24.3463645,37.0715181 24.0353841,37.0715181 C23.6887175,37.0715181 23.4236234,37.2359273 23.240094,37.5647509 C23.0514666,37.9063195 22.9571543,38.3332738 22.9571543,38.8456267 C22.9571543,39.3656267 23.05529,39.7989535 23.2515645,40.1456202 C23.4299959,40.4642476 23.687443,40.623559 24.0239136,40.623559 C24.2864626,40.623559 24.4916556,40.5260604 24.6394987,40.3310604 C24.7873418,40.1360604 24.8842031,39.8359179 24.9300855,39.4306238 Z M30.0432401,39.9123861 L27.6497228,39.9123861 C27.6599188,40.1443468 27.6943301,40.329148 27.7529575,40.466795 C27.8574673,40.719148 28.0588369,40.8453225 28.3570721,40.8453225 C28.59668,40.8453225 28.7687362,40.7663041 28.873246,40.6082649 L29.9514759,40.6082649 C29.9004955,40.7714022 29.8049087,40.92689 29.6647126,41.0747331 C29.3537322,41.4010076 28.9178564,41.5641424 28.3570721,41.5641424 C27.7988369,41.5641424 27.3565886,41.3997331 27.0303141,41.0709096 C26.6861965,40.721694 26.5141403,40.2552304 26.5141403,39.6715049 C26.5141403,39.1311128 26.6709026,38.6812176 26.984432,38.3218059 C27.3209026,37.9343549 27.7580529,37.7406323 28.295896,37.7406323 C28.7241312,37.7406323 29.0873611,37.8693559 29.3855964,38.1268068 C29.602263,38.3154343 29.7628488,38.5505778 29.8673586,38.8322445 C29.9718684,39.1139111 30.030495,39.4739547 30.0432401,39.9123861 Z M28.9076576,39.2700364 C28.8923635,39.1043501 28.8605012,38.9641561 28.8120698,38.8494503 C28.702462,38.5894503 28.5278568,38.4594522 28.288249,38.4594522 C28.1149156,38.4594522 27.9721727,38.5314609 27.8600158,38.6754805 C27.747859,38.8195001 27.6790365,39.0176834 27.6535463,39.2700364 L28.9076576,39.2700364 Z M30.5949471,41.4532606 L30.5949471,37.8515141 L31.6770005,37.8515141 L31.6770005,38.1841595 C31.9293534,37.8884732 32.26327,37.7406323 32.6787602,37.7406323 C33.1605248,37.7406323 33.5122843,37.9012181 33.7340489,38.2223946 C33.871696,38.4212181 33.9405185,38.7321938 33.9405185,39.1553311 L33.9405185,41.4532606 L32.8661122,41.4532606 L32.8661122,39.3235655 C32.8661122,39.0737616 32.8380734,38.8978819 32.7819949,38.7959211 C32.6927792,38.6353329 32.5462128,38.55504 32.3422913,38.55504 C32.0771932,38.55504 31.8847452,38.6837635 31.7649412,38.9412145 C31.7012157,39.0737635 31.6693535,39.3197402 31.6693535,39.679152 L31.6693535,41.4532606 L30.5949471,41.4532606 Z M34.3813437,38.5244519 L34.3813437,37.8515141 L34.9510468,37.8515141 L34.9510468,37.61828 L35.6736902,36.6547554 L36.0254531,36.6547554 L36.0254531,37.8515141 L36.7175084,37.8515141 L36.7175084,38.5244519 L36.0254531,38.5244519 L36.0254531,40.2297374 C36.0254531,40.4489531 36.0490312,40.5929705 36.096188,40.6617941 C36.1433449,40.7306176 36.2421179,40.7650288 36.3925101,40.7650288 C36.4766277,40.7650288 36.5722145,40.747186 36.6792733,40.7114997 L36.6792733,41.4800252 C36.4575086,41.5259076 36.2421197,41.5488484 36.0331001,41.5488484 C35.5870217,41.5488484 35.2824184,41.4328698 35.1192812,41.200909 C35.0504577,41.1040462 35.0052133,40.9918911 34.9835466,40.8644401 C34.9618799,40.7369891 34.9510468,40.5126788 34.9510468,40.1915023 L34.9510468,38.5244519 L34.3813437,38.5244519 Z M40.4083173,39.9123861 L38.0147999,39.9123861 C38.024996,40.1443468 38.0594073,40.329148 38.1180347,40.466795 C38.2225445,40.719148 38.423914,40.8453225 38.7221493,40.8453225 C38.9617571,40.8453225 39.1338134,40.7663041 39.2383232,40.6082649 L40.316553,40.6082649 C40.2655726,40.7714022 40.1699858,40.92689 40.0297898,41.0747331 C39.7188094,41.4010076 39.2829336,41.5641424 38.7221493,41.5641424 C38.163914,41.5641424 37.7216658,41.3997331 37.3953913,41.0709096 C37.0512737,40.721694 36.8792174,40.2552304 36.8792174,39.6715049 C36.8792174,39.1311128 37.0359798,38.6812176 37.3495092,38.3218059 C37.6859798,37.9343549 38.12313,37.7406323 38.6609732,37.7406323 C39.0892084,37.7406323 39.4524383,37.8693559 39.7506735,38.1268068 C39.9673402,38.3154343 40.127926,38.5505778 40.2324358,38.8322445 C40.3369456,39.1139111 40.3955722,39.4739547 40.4083173,39.9123861 Z M39.2727348,39.2700364 C39.2574407,39.1043501 39.2255784,38.9641561 39.177147,38.8494503 C39.0675392,38.5894503 38.892934,38.4594522 38.6533261,38.4594522 C38.4799928,38.4594522 38.3372499,38.5314609 38.225093,38.6754805 C38.1129361,38.8195001 38.0441137,39.0176834 38.0186235,39.2700364 L39.2727348,39.2700364 Z M40.9600243,41.4532606 L40.9600243,37.8515141 L42.0344307,37.8515141 L42.0344307,38.3103353 C42.2867836,37.9305314 42.6079552,37.7406323 42.9979552,37.7406323 C43.0897199,37.7406323 43.1840322,37.7521027 43.280895,37.7750439 L43.280895,38.7079804 C43.1305028,38.6697451 43.0030538,38.6506277 42.898544,38.6506277 C42.5467793,38.6506277 42.2982536,38.8048411 42.1529595,39.1132725 C42.0739399,39.2815077 42.0344307,39.5567977 42.0344307,39.9391506 L42.0344307,41.4532606 L40.9600243,41.4532606 Z" id="Telefonie" fill="#4B4B4B"></path>
                            <g id="Icon-Telefoniecenter" transform="translate(7.836401, 30.774566)">
                                <path d="M11.7546014,10.9020538 C11.7546014,11.3931373 11.3627813,11.7860041 10.8730063,11.7860041 L0.881595104,11.7860041 C0.391820046,11.7860041 0,11.3931373 0,10.9020538 L0,0.883950305 C0,0.392866802 0.391820046,0 0.881595104,0 L10.8730063,0 C11.3627813,0 11.7546014,0.392866802 11.7546014,0.883950305 L11.7546014,10.9020538 L11.7546014,10.9020538 Z" id="Shape" fill="#E20074"></path>
                                <path d="M5.87730069,2.43577417 L2.48805729,5.83407201 L2.48805729,9.42880325 C2.48805729,9.58594997 2.62519431,9.72345335 2.78192233,9.72345335 L8.95308805,9.72345335 C9.10981607,9.72345335 9.24695309,9.58594997 9.24695309,9.42880325 L9.24695309,5.83407201 L5.87730069,2.43577417 L5.87730069,2.43577417 Z M7.18989785,8.83950305 L6.95480582,9.07522313 C6.95480582,9.07522313 6.93521482,9.09486647 6.91562381,9.09486647 C6.8372598,9.15379649 6.7588958,9.17343983 6.66094078,9.17343983 C6.38666675,9.23236985 5.58343566,8.68235633 4.78020456,7.87697938 C3.97697347,7.07160244 3.44801641,6.28586883 3.48719841,5.99121873 C3.48719841,5.89300203 3.52638042,5.81442867 3.56556242,5.73585531 C3.56556242,5.71621197 3.58515342,5.71621197 3.58515342,5.69656863 L3.82024545,5.46084855 C3.87901846,5.40191853 3.99656447,5.40191853 4.05533748,5.46084855 L4.89775058,6.30551217 C4.95652358,6.36444219 4.95652358,6.48230223 4.89775058,6.54123225 L4.66265855,6.77695234 L4.93693258,7.09124578 C5.0936606,7.26803584 5.34834363,7.5430426 5.52466265,7.68054598 L5.83811869,7.95555274 L6.07321071,7.71983266 C6.13198372,7.66090264 6.24952974,7.66090264 6.30830274,7.71983266 L7.15071584,8.56449629 C7.26826186,8.68235633 7.26826186,8.78057303 7.18989785,8.83950305 L7.18989785,8.83950305 Z M7.58171789,6.03050541 C7.58171789,6.08943543 7.58171789,6.12872211 7.56212689,6.18765213 L7.85599192,6.44301555 C7.79721892,6.60016227 7.71885491,6.73766566 7.6208999,6.8555257 L7.24867085,6.71802232 C7.17030684,6.77695234 7.07235183,6.83588236 6.97439682,6.87516904 L6.91562381,7.26803584 C6.85685081,7.26803584 6.7784868,7.26803584 6.70012279,7.26803584 C6.62175878,7.26803584 6.54339477,7.26803584 6.46503076,7.2483925 L6.40625775,6.8555257 C6.30830274,6.81623902 6.21034773,6.757309 6.13198372,6.69837898 L5.75975468,6.83588236 C5.66179967,6.71802232 5.58343566,6.58051893 5.52466265,6.42337221 L5.81852768,6.16800879 C5.81852768,6.10907877 5.79893668,6.06979209 5.79893668,6.01086207 C5.79893668,5.95193205 5.79893668,5.91264537 5.81852768,5.85371535 L5.52466265,5.59835193 C5.58343566,5.44120521 5.66179967,5.30370183 5.75975468,5.18584179 L6.13198372,5.32334517 C6.21034773,5.26441515 6.30830274,5.20548513 6.40625775,5.16619845 L6.46503076,4.77333165 C6.54339477,4.75368831 6.62175878,4.75368831 6.70012279,4.75368831 C6.7784868,4.75368831 6.85685081,4.75368831 6.93521482,4.77333165 L6.99398782,5.16619845 C7.09194283,5.20548513 7.18989785,5.26441515 7.26826186,5.32334517 L7.6404909,5.18584179 C7.73844591,5.30370183 7.81680992,5.44120521 7.87558293,5.59835193 L7.58171789,5.85371535 L7.58171789,6.03050541 Z M6.70012279,6.56087559 C6.99225771,6.56087559 7.22907985,6.32342078 7.22907985,6.03050541 C7.22907985,5.73759005 6.99225771,5.50013523 6.70012279,5.50013523 C6.40798787,5.50013523 6.17116573,5.73759005 6.17116573,6.03050541 C6.17116573,6.32342078 6.40798787,6.56087559 6.70012279,6.56087559 Z" id="Combined-Shape" fill="#FEF4F9"></path>
                                <polygon id="Shape" fill="#F39ECA" points="5.87730069 2.43577417 2.48805729 5.83407201 2.48805729 5.97157539 5.87730069 2.96614436 9.26654409 5.95193205 9.26654409 5.85371535"></polygon>
                                <polygon id="Shape" fill="#FAD9EB" points="9.79550115 6.38408553 5.87730069 2.43577417 1.95910023 6.38408553 1.46932517 5.89300203 5.87730069 1.47325051 10.2852762 5.89300203"></polygon>
                            </g>
                            <path d="M9.79744118,21.6761886 L11.3664889,21.6761886 L11.3664889,20.1031652 L9.79744118,20.1031652 L9.79744118,21.6761886 Z M9.79657894,19.1312106 L10.1436276,19.2031832 C10.2212285,18.3866289 10.4359244,17.7805891 10.7874998,17.3848477 C11.1576131,16.9709511 11.6911195,16.745091 12.3462007,16.7267196 L12.3462007,22.3360457 C12.3462007,22.8420155 12.28218,23.3829989 12.1336604,23.5342927 C12.0077744,23.6635409 11.794803,23.7430782 11.4945305,23.7724724 C11.4057205,23.7800371 11.1929646,23.8230478 10.9778376,23.8230478 L10.9778376,24.2267861 L14.8904335,24.2267861 L14.8904335,23.8230478 C14.6753065,23.8230478 14.4625506,23.7800371 14.3735251,23.7724724 C14.0734682,23.7430782 13.8604967,23.6635409 13.7346108,23.5342927 C13.5860912,23.3829989 13.5220704,22.8420155 13.5220704,22.3360457 L13.5220704,16.7267196 C14.1769361,16.745091 14.7044069,16.9709511 15.0747358,17.3848477 C15.4260955,17.7805891 15.641007,18.3866289 15.7183924,19.2031832 L16.0656566,19.1312106 L16.0665188,16.3694501 L9.79550115,16.3694501 L9.79657894,19.1312106 Z M14.4983333,21.6761886 L16.067381,21.6761886 L16.067381,20.1031652 L14.4983333,20.1031652 L14.4983333,21.6761886 Z M19.1992254,21.6761886 L20.7682731,21.6761886 L20.7682731,20.1031652 L19.1992254,20.1031652 L19.1992254,21.6761886 Z M23.9001175,21.670353 L25.4691652,21.670353 L25.4691652,20.0971135 L23.9001175,20.0971135 L23.9001175,21.670353 Z" id="Markenlabel" fill="#E20074"></path>
                        </g>
                    </g>
                </g>
            </g>
        </g>
    </g>
</svg>