<?xml version="1.0" encoding="UTF-8"?>
<svg width="9px" height="16px" viewBox="0 0 9 16" version="1.1" xmlns="http://www.w3.org/2000/svg" xmlns:xlink="http://www.w3.org/1999/xlink">
    <!-- Generator: Sketch 41 (35326) - http://www.bohemiancoding.com/sketch -->
    <title>Icon Hilfe</title>
    <desc>Created with Sketch.</desc>
    <defs></defs>
    <g id="Symbols" stroke="none" stroke-width="1" fill="none" fill-rule="evenodd">
        <g id="Header" transform="translate(-1342.000000, -112.000000)" fill="#383838">
            <g id="Icon-Hilfe" transform="translate(1328.000000, 102.000000)">
                <path d="M15.9158576,13.4692557 C16.2783172,12.3300971 17.0032362,11.7605178 18.038835,11.7605178 C18.7119741,11.7605178 19.2297735,12.0194175 19.6440129,12.4854369 C20.0582524,13.0032362 20.2653722,13.6245955 20.2653722,14.3495146 C20.2653722,14.815534 20.1618123,15.2815534 20.0064725,15.6957929 C19.8511327,16.1618123 19.4886731,16.6796117 18.9708738,17.3009709 C18.6601942,17.6634304 18.4012945,18.02589 18.1941748,18.2847896 C17.9352751,18.5954693 17.7281553,19.0097087 17.5728155,19.4239482 C17.3656958,20.0453074 17.2621359,20.7702265 17.2621359,21.6504854 L17.2621359,22.1165049 L18.9708738,22.1165049 C18.9708738,21.5987055 18.9708738,21.184466 19.0226537,20.8737864 C19.1262136,20.0453074 19.4368932,19.3203883 19.9546926,18.6472492 C20.6278317,17.8705502 21.0938511,17.3009709 21.2491909,17.0420712 C21.8705502,16.1618123 22.1812298,15.2297735 22.1812298,14.1423948 C22.1812298,13.0032362 21.8705502,12.1229773 21.2491909,11.3462783 C20.4724919,10.4660194 19.4886731,10 18.1423948,10 C16.4854369,10 15.2944984,10.7249191 14.5695793,12.1747573 C14.2071197,12.8996764 14.0517799,13.7799353 14,14.9190939 L15.7087379,14.9190939 C15.7087379,14.2977346 15.8122977,13.7799353 15.9158576,13.4692557 L15.9158576,13.4692557 Z M16.9514563,26 L19.2297735,26 L19.2297735,23.566343 L16.9514563,23.566343 L16.9514563,26 Z"></path>
            </g>
        </g>
    </g>
</svg>