<svg id="SvgjsSvg1000" xmlns="http://www.w3.org/2000/svg" version="1.1" xmlns:xlink="http://www.w3.org/1999/xlink" xmlns:svgjs="http://svgjs.com/svgjs" width="20" height="14" viewBox="0 0 20 14"><title>Icon Menü</title><desc>Created with Avocode.</desc><defs id="SvgjsDefs1001"></defs><path id="SvgjsPath1007" d="M40.7 125.55C40.31 125.55 40 125.88 40 126.28C40 126.68 40.31 127 40.7 127L59.300000000000004 127C59.690000000000005 127 60.00000000000001 126.68 60.00000000000001 126.28C60.00000000000001 125.88 59.690000000000005 125.55 59.300000000000004 125.55ZM40.7 113C40.31 113 40 113.32 40 113.72C40 114.12 40.31 114.45 40.7 114.45L59.300000000000004 114.45C59.690000000000005 114.45 60.00000000000001 114.12 60.00000000000001 113.72C60.00000000000001 113.32 59.690000000000005 113 59.300000000000004 113ZM59.3 119.28C59.69 119.28 60 119.6 60 120C60 120.4 59.69 120.72 59.3 120.72L40.699999999999996 120.72C40.309999999999995 120.72 39.99999999999999 120.4 39.99999999999999 120C39.99999999999999 119.6 40.309999999999995 119.28 40.699999999999996 119.28Z " fill="#383838" fill-opacity="1" transform="matrix(1,0,0,1,-40,-113)"></path></svg>