<?xml version="1.0" encoding="UTF-8"?>
<svg width="19px" height="19px" viewBox="0 0 19 19" version="1.1" xmlns="http://www.w3.org/2000/svg" xmlns:xlink="http://www.w3.org/1999/xlink">
    <!-- Generator: Sketch 41 (35326) - http://www.bohemiancoding.com/sketch -->
    <title>Fill 1</title>
    <desc>Created with Sketch.</desc>
    <defs></defs>
    <g id="Symbols" stroke="none" stroke-width="1" fill="none" fill-rule="evenodd">
        <g id="Header" transform="translate(-41.000000, -111.000000)" fill="#383838">
            <g id="Menü-(Ohne-Partner-Dienste)" transform="translate(0.000000, 102.000000)">
                <g id="Closebutton" transform="translate(32.000000, 0.000000)">
                    <path d="M27.78825,26.79425 L19.49125,18.49725 L27.78725,10.20025 C28.06225,9.92525 28.06225,9.48025 27.78725,9.20625 C27.51225,8.93125 27.06725,8.93125 26.79325,9.20625 L18.49725,17.50325 L10.20025,9.20625 C9.92525,8.93125 9.48025,8.93125 9.20625,9.20625 C8.93125,9.48025 8.93125,9.92525 9.20625,10.20025 L17.50325,18.49725 L9.20625,26.79425 C8.93225,27.06925 8.93225,27.51425 9.20625,27.78825 C9.34425,27.92625 9.52425,27.99425 9.70425,27.99425 C9.88325,27.99425 10.06425,27.92625 10.20125,27.78825 L18.49725,19.49125 L26.79425,27.78825 C26.93125,27.92625 27.11125,27.99425 27.29125,27.99425 C27.47125,27.99425 27.65125,27.92625 27.78825,27.78825 C28.06325,27.51425 28.06325,27.06925 27.78825,26.79425" id="Fill-1"></path>
                </g>
            </g>
        </g>
    </g>
</svg>