<?xml version="1.0" encoding="UTF-8"?>
<svg width="16px" height="16px" viewBox="0 0 16 16" version="1.1" xmlns="http://www.w3.org/2000/svg" xmlns:xlink="http://www.w3.org/1999/xlink">
    <!-- Generator: Sketch 41 (35326) - http://www.bohemiancoding.com/sketch -->
    <title>Icon Apps</title>
    <desc>Created with Sketch.</desc>
    <defs></defs>
    <g id="Symbols" stroke="none" stroke-width="1" fill="none" fill-rule="evenodd">
        <g id="Header" transform="translate(-1302.000000, -112.000000)" fill="#383838">
            <g id="Icon-Apps" transform="translate(1292.000000, 102.000000)">
                <path d="M10,10 L14,10 L14,14 L10,14 L10,10 Z M10,16 L14,16 L14,20 L10,20 L10,16 Z M10,22 L14,22 L14,26 L10,26 L10,22 Z M16,10 L20,10 L20,14 L16,14 L16,10 Z M16,16 L20,16 L20,20 L16,20 L16,16 Z M16,22 L20,22 L20,26 L16,26 L16,22 Z M22,10 L26,10 L26,14 L22,14 L22,10 Z M22,16 L26,16 L26,20 L22,20 L22,16 Z M22,22 L26,22 L26,26 L22,26 L22,22 Z"></path>
            </g>
        </g>
    </g>
</svg>