<?xml version="1.0" encoding="UTF-8"?>
<svg width="23px" height="20px" viewBox="0 0 23 20" version="1.1" xmlns="http://www.w3.org/2000/svg" xmlns:xlink="http://www.w3.org/1999/xlink">
    <!-- Generator: Sketch 41 (35326) - http://www.bohemiancoding.com/sketch -->
    <title>Icon Profil</title>
    <desc>Created with Sketch.</desc>
    <defs></defs>
    <g id="Symbols" stroke="none" stroke-width="1" fill="none" fill-rule="evenodd">
        <g id="Header" transform="translate(-1180.000000, -110.000000)" fill="#FFFFFF">
            <g id="Button-Login" transform="translate(1164.000000, 102.000000)">
                <path d="M20.3477778,22.8148148 C17.9503704,22.8148148 16,24.7655556 16,27.1625926 L16,28 L17.1111111,28 L17.1111111,27.1625926 C17.1111111,25.3781481 18.562963,23.9259259 20.3477778,23.9259259 L33.8740741,23.9259259 C35.6588889,23.9259259 37.1107407,25.3781481 37.1107407,27.1625926 L37.1107407,28 L38.2218519,28 L38.2218519,27.1625926 C38.2222222,24.7655556 36.2718519,22.8148148 33.8744444,22.8148148 L20.3477778,22.8148148 Z M27.1111111,21.3333333 C29.7707407,21.3333333 31.9259259,19.0766667 31.9259259,16.5185185 L31.9259259,12.8148148 C31.9259259,10.257037 29.7707407,8 27.1111111,8 C24.4514815,8 22.2962963,10.257037 22.2962963,12.8148148 L22.2962963,16.5185185 C22.2962963,19.0766667 24.4514815,21.3333333 27.1111111,21.3333333 L27.1111111,21.3333333 Z M23.4074074,12.8148148 C23.4074074,10.807037 25.1033333,9.11111111 27.1111111,9.11111111 C29.1188889,9.11111111 30.8148148,10.807037 30.8148148,12.8148148 L30.8148148,16.5185185 C30.8148148,18.5262963 29.1188889,20.2222222 27.1111111,20.2222222 C25.1033333,20.2222222 23.4074074,18.5262963 23.4074074,16.5185185 L23.4074074,12.8148148 L23.4074074,12.8148148 Z" id="Icon-Profil"></path>
            </g>
        </g>
    </g>
</svg>