<?xml version="1.0" encoding="UTF-8"?>
<svg width="279px" height="192px" viewBox="0 0 279 192" version="1.1" xmlns="http://www.w3.org/2000/svg" xmlns:xlink="http://www.w3.org/1999/xlink">
    <!-- Generator: Sketch 41 (35326) - http://www.bohemiancoding.com/sketch -->
    <title>Group 3</title>
    <desc>Created with Sketch.</desc>
    <defs>
        <linearGradient x1="50.0021739%" y1="100%" x2="50.0021739%" y2="0%" id="linearGradient-1">
            <stop stop-color="#6D6D6D" offset="0%"></stop>
            <stop stop-color="#D0D0D0" offset="100%"></stop>
        </linearGradient>
        <linearGradient x1="50.0019231%" y1="100%" x2="50.0019231%" y2="-0.0676300578%" id="linearGradient-2">
            <stop stop-color="#D0D0D0" offset="0%"></stop>
            <stop stop-color="#EDEDED" offset="100%"></stop>
        </linearGradient>
        <radialGradient cx="50.0166667%" cy="50%" fx="50.0166667%" fy="50%" r="250%" id="radialGradient-3">
            <stop stop-color="#8BB25F" offset="0%"></stop>
            <stop stop-color="#7BA84A" offset="100%"></stop>
        </radialGradient>
        <linearGradient x1="50.0021739%" y1="99.3157576%" x2="50.0021739%" y2="-1.96%" id="linearGradient-4">
            <stop stop-color="#FFD329" offset="0%"></stop>
            <stop stop-color="#FFDE5F" offset="100%"></stop>
        </linearGradient>
    </defs>
    <g id="Login-mit-Telekom-(Optional)" stroke="none" stroke-width="1" fill="none" fill-rule="evenodd">
        <g id="Login-mit-Telekom-03" transform="translate(-1053.000000, -909.000000)">
            <g id="Einfach-sicher" transform="translate(991.000000, 905.000000)">
                <g id="Group-3" transform="translate(57.000000, 0.000000)">
                    <path d="M283.234414,134.770574 L257.879529,119.996259 L257.879529,131.066905 L214.147559,131.066905 C212.102217,131.066905 210.44389,132.725232 210.44389,134.770574 C210.44389,136.815915 212.102217,138.474242 214.147559,138.474242 L257.879529,138.474242 L257.879529,149.544888 L283.234414,134.770574 Z M249.273599,38.5542576 L220.898267,46.0358262 L228.726492,53.8640506 L200.35116,82.2393823 C198.904718,83.6858237 198.904718,86.0302551 200.35116,87.4766965 C201.797601,88.9231379 204.142753,88.9231379 205.588474,87.4766965 L233.963806,59.1013648 L241.79203,66.9295893 L249.273599,38.5542576 Z M144.139651,4.32418953 L129.365337,29.6790748 L140.435983,29.6790748 L140.435983,69.8075536 C140.435983,71.8528953 142.094309,73.5112219 144.139651,73.5112219 C146.184993,73.5112219 147.843319,71.8528953 147.843319,69.8075536 L147.843319,29.6790748 L158.913965,29.6790748 L144.139651,4.32418953 Z M39.005703,38.5542576 L67.3810347,46.0358262 L59.5528102,53.8640506 L87.9281419,82.2393823 C89.3745833,83.6858237 89.3745833,86.0302551 87.9281419,87.4766965 C86.4817005,88.9231379 84.1372691,88.9231379 82.6908277,87.4766965 L54.315496,59.1013648 L46.4872716,66.9295893 L39.005703,38.5542576 Z M5.04488778,134.770574 L30.3997731,119.996259 L30.3997731,131.066905 L74.1317431,131.066905 C76.1770848,131.066905 77.8354115,132.725232 77.8354115,134.770574 C77.8354115,136.815915 76.1770848,138.474242 74.1317431,138.474242 L30.3997731,138.474242 L30.3997731,149.544888 L5.04488778,134.770574 Z" id="Combined-Shape" fill="#E20074"></path>
                    <g id="Server" transform="translate(97.294264, 91.528678)">
                        <rect id="Rectangle-path" fill="url(#linearGradient-1)" x="5.40523691" y="7.20698254" width="82.8802993" height="81.0785536"></rect>
                        <path d="M90.0872818,64.8628429 L3.60349127,64.8628429 C1.62157107,64.8628429 0,66.484414 0,68.4663342 L0,90.0872818 C0,92.069202 1.62157107,93.6907731 3.60349127,93.6907731 L90.0872818,93.6907731 C92.069202,93.6907731 93.6907731,92.069202 93.6907731,90.0872818 L93.6907731,68.4663342 C93.6907731,66.484414 92.069202,64.8628429 90.0872818,64.8628429 L90.0872818,64.8628429 Z M90.0872818,0.180174564 L3.60349127,0.180174564 C1.62157107,0.180174564 0,1.80174564 0,3.78366584 L0,25.2244389 C0,27.2063591 1.62157107,28.8279302 3.60349127,28.8279302 L90.0872818,28.8279302 C92.069202,28.8279302 93.6907731,27.2063591 93.6907731,25.2244389 L93.6907731,3.78366584 C93.6907731,1.80174564 92.069202,0.180174564 90.0872818,0.180174564 L90.0872818,0.180174564 Z M90.0872818,32.4314214 L3.60349127,32.4314214 C1.62157107,32.4314214 0,34.0529925 0,36.0349127 L0,57.6558603 C0,59.6377805 1.62157107,61.2593516 3.60349127,61.2593516 L90.0872818,61.2593516 C92.069202,61.2593516 93.6907731,59.6377805 93.6907731,57.6558603 L93.6907731,36.0349127 C93.6907731,34.0529925 92.069202,32.4314214 90.0872818,32.4314214 L90.0872818,32.4314214 Z" id="Shape" fill="url(#linearGradient-2)"></path>
                        <path d="M24.3235661,7.20698254 C22.8821696,7.20698254 21.6209476,8.46820449 21.6209476,9.909601 C21.6209476,11.3509975 22.8821696,12.6122195 24.3235661,12.6122195 C25.7649626,12.6122195 27.0261845,11.3509975 27.0261845,9.909601 C27.0261845,8.46820449 25.7649626,7.20698254 24.3235661,7.20698254 L24.3235661,7.20698254 Z M35.1340399,16.2157107 C33.6926434,16.2157107 32.4314214,17.4769327 32.4314214,18.9183292 C32.4314214,20.3597257 33.6926434,21.6209476 35.1340399,21.6209476 C36.5754364,21.6209476 37.8366584,20.3597257 37.8366584,18.9183292 C37.8366584,17.4769327 36.5754364,16.2157107 35.1340399,16.2157107 L35.1340399,16.2157107 Z M13.5130923,7.20698254 C12.0716958,7.20698254 10.8104738,8.46820449 10.8104738,9.909601 C10.8104738,11.3509975 12.0716958,12.6122195 13.5130923,12.6122195 C14.9544888,12.6122195 16.2157107,11.3509975 16.2157107,9.909601 C16.2157107,8.46820449 14.9544888,7.20698254 13.5130923,7.20698254 L13.5130923,7.20698254 Z M24.3235661,16.2157107 C22.8821696,16.2157107 21.6209476,17.4769327 21.6209476,18.9183292 C21.6209476,20.3597257 22.8821696,21.6209476 24.3235661,21.6209476 C25.7649626,21.6209476 27.0261845,20.3597257 27.0261845,18.9183292 C27.0261845,17.4769327 25.7649626,16.2157107 24.3235661,16.2157107 L24.3235661,16.2157107 Z M35.1340399,7.20698254 C33.6926434,7.20698254 32.4314214,8.46820449 32.4314214,9.909601 C32.4314214,11.3509975 33.6926434,12.6122195 35.1340399,12.6122195 C36.5754364,12.6122195 37.8366584,11.3509975 37.8366584,9.909601 C37.8366584,8.46820449 36.5754364,7.20698254 35.1340399,7.20698254 L35.1340399,7.20698254 Z M45.9445137,12.6122195 C47.3859102,12.6122195 48.6471322,11.3509975 48.6471322,9.909601 C48.6471322,8.46820449 47.3859102,7.20698254 45.9445137,7.20698254 C44.5031172,7.20698254 43.2418953,8.46820449 43.2418953,9.909601 C43.2418953,11.3509975 44.5031172,12.6122195 45.9445137,12.6122195 L45.9445137,12.6122195 Z M45.9445137,16.2157107 C44.5031172,16.2157107 43.2418953,17.4769327 43.2418953,18.9183292 C43.2418953,20.3597257 44.5031172,21.6209476 45.9445137,21.6209476 C47.3859102,21.6209476 48.6471322,20.3597257 48.6471322,18.9183292 C48.6471322,17.4769327 47.3859102,16.2157107 45.9445137,16.2157107 L45.9445137,16.2157107 Z M13.5130923,16.2157107 C12.0716958,16.2157107 10.8104738,17.4769327 10.8104738,18.9183292 C10.8104738,20.3597257 12.0716958,21.6209476 13.5130923,21.6209476 C14.9544888,21.6209476 16.2157107,20.3597257 16.2157107,18.9183292 C16.2157107,17.4769327 14.9544888,16.2157107 13.5130923,16.2157107 L13.5130923,16.2157107 Z M24.3235661,48.6471322 C22.8821696,48.6471322 21.6209476,49.9083541 21.6209476,51.3497506 C21.6209476,52.7911471 22.8821696,54.0523691 24.3235661,54.0523691 C25.7649626,54.0523691 27.0261845,52.7911471 27.0261845,51.3497506 C27.0261845,49.9083541 25.7649626,48.6471322 24.3235661,48.6471322 L24.3235661,48.6471322 Z M13.5130923,39.638404 C12.0716958,39.638404 10.8104738,40.8996259 10.8104738,42.3410224 C10.8104738,43.782419 12.0716958,45.0436409 13.5130923,45.0436409 C14.9544888,45.0436409 16.2157107,43.782419 16.2157107,42.3410224 C16.2157107,40.8996259 14.9544888,39.638404 13.5130923,39.638404 L13.5130923,39.638404 Z M24.3235661,39.638404 C22.8821696,39.638404 21.6209476,40.8996259 21.6209476,42.3410224 C21.6209476,43.782419 22.8821696,45.0436409 24.3235661,45.0436409 C25.7649626,45.0436409 27.0261845,43.782419 27.0261845,42.3410224 C27.0261845,40.8996259 25.7649626,39.638404 24.3235661,39.638404 L24.3235661,39.638404 Z M13.5130923,48.6471322 C12.0716958,48.6471322 10.8104738,49.9083541 10.8104738,51.3497506 C10.8104738,52.7911471 12.0716958,54.0523691 13.5130923,54.0523691 C14.9544888,54.0523691 16.2157107,52.7911471 16.2157107,51.3497506 C16.2157107,49.9083541 14.9544888,48.6471322 13.5130923,48.6471322 L13.5130923,48.6471322 Z M35.1340399,48.6471322 C33.6926434,48.6471322 32.4314214,49.9083541 32.4314214,51.3497506 C32.4314214,52.7911471 33.6926434,54.0523691 35.1340399,54.0523691 C36.5754364,54.0523691 37.8366584,52.7911471 37.8366584,51.3497506 C37.8366584,49.9083541 36.5754364,48.6471322 35.1340399,48.6471322 L35.1340399,48.6471322 Z M35.1340399,39.638404 C33.6926434,39.638404 32.4314214,40.8996259 32.4314214,42.3410224 C32.4314214,43.782419 33.6926434,45.0436409 35.1340399,45.0436409 C36.5754364,45.0436409 37.8366584,43.782419 37.8366584,42.3410224 C37.8366584,40.8996259 36.5754364,39.638404 35.1340399,39.638404 L35.1340399,39.638404 Z M45.9445137,48.6471322 C44.5031172,48.6471322 43.2418953,49.9083541 43.2418953,51.3497506 C43.2418953,52.7911471 44.5031172,54.0523691 45.9445137,54.0523691 C47.3859102,54.0523691 48.6471322,52.7911471 48.6471322,51.3497506 C48.6471322,49.9083541 47.3859102,48.6471322 45.9445137,48.6471322 L45.9445137,48.6471322 Z M45.9445137,39.638404 C44.5031172,39.638404 43.2418953,40.8996259 43.2418953,42.3410224 C43.2418953,43.782419 44.5031172,45.0436409 45.9445137,45.0436409 C47.3859102,45.0436409 48.6471322,43.782419 48.6471322,42.3410224 C48.6471322,40.8996259 47.3859102,39.638404 45.9445137,39.638404 L45.9445137,39.638404 Z M13.5130923,81.0785536 C12.0716958,81.0785536 10.8104738,82.3397756 10.8104738,83.7811721 C10.8104738,85.2225686 12.0716958,86.4837905 13.5130923,86.4837905 C14.9544888,86.4837905 16.2157107,85.2225686 16.2157107,83.7811721 C16.2157107,82.3397756 14.9544888,81.0785536 13.5130923,81.0785536 L13.5130923,81.0785536 Z M13.5130923,72.0698254 C12.0716958,72.0698254 10.8104738,73.3310474 10.8104738,74.7724439 C10.8104738,76.2138404 12.0716958,77.4750623 13.5130923,77.4750623 C14.9544888,77.4750623 16.2157107,76.2138404 16.2157107,74.7724439 C16.2157107,73.3310474 14.9544888,72.0698254 13.5130923,72.0698254 L13.5130923,72.0698254 Z M35.1340399,81.0785536 C33.6926434,81.0785536 32.4314214,82.3397756 32.4314214,83.7811721 C32.4314214,85.2225686 33.6926434,86.4837905 35.1340399,86.4837905 C36.5754364,86.4837905 37.8366584,85.2225686 37.8366584,83.7811721 C37.8366584,82.3397756 36.5754364,81.0785536 35.1340399,81.0785536 L35.1340399,81.0785536 Z M45.9445137,81.0785536 C44.5031172,81.0785536 43.2418953,82.3397756 43.2418953,83.7811721 C43.2418953,85.2225686 44.5031172,86.4837905 45.9445137,86.4837905 C47.3859102,86.4837905 48.6471322,85.2225686 48.6471322,83.7811721 C48.6471322,82.3397756 47.3859102,81.0785536 45.9445137,81.0785536 L45.9445137,81.0785536 Z M45.9445137,72.0698254 C44.5031172,72.0698254 43.2418953,73.3310474 43.2418953,74.7724439 C43.2418953,76.2138404 44.5031172,77.4750623 45.9445137,77.4750623 C47.3859102,77.4750623 48.6471322,76.2138404 48.6471322,74.7724439 C48.6471322,73.3310474 47.3859102,72.0698254 45.9445137,72.0698254 L45.9445137,72.0698254 Z M35.1340399,72.0698254 C33.6926434,72.0698254 32.4314214,73.3310474 32.4314214,74.7724439 C32.4314214,76.2138404 33.6926434,77.4750623 35.1340399,77.4750623 C36.5754364,77.4750623 37.8366584,76.2138404 37.8366584,74.7724439 C37.8366584,73.3310474 36.5754364,72.0698254 35.1340399,72.0698254 L35.1340399,72.0698254 Z M24.3235661,81.0785536 C22.8821696,81.0785536 21.6209476,82.3397756 21.6209476,83.7811721 C21.6209476,85.2225686 22.8821696,86.4837905 24.3235661,86.4837905 C25.7649626,86.4837905 27.0261845,85.2225686 27.0261845,83.7811721 C27.0261845,82.3397756 25.7649626,81.0785536 24.3235661,81.0785536 L24.3235661,81.0785536 Z M24.3235661,72.0698254 C22.8821696,72.0698254 21.6209476,73.3310474 21.6209476,74.7724439 C21.6209476,76.2138404 22.8821696,77.4750623 24.3235661,77.4750623 C25.7649626,77.4750623 27.0261845,76.2138404 27.0261845,74.7724439 C27.0261845,73.3310474 25.7649626,72.0698254 24.3235661,72.0698254 L24.3235661,72.0698254 Z" id="Shape" fill="#55565A"></path>
                        <path d="M79.276808,41.4401496 C76.2138404,41.4401496 73.8715711,43.782419 73.8715711,46.8453865 C73.8715711,49.9083541 76.2138404,52.2506234 79.276808,52.2506234 C82.3397756,52.2506234 84.6820449,49.9083541 84.6820449,46.8453865 C84.6820449,43.782419 82.3397756,41.4401496 79.276808,41.4401496 L79.276808,41.4401496 Z M79.276808,73.8715711 C76.2138404,73.8715711 73.8715711,76.2138404 73.8715711,79.276808 C73.8715711,82.3397756 76.2138404,84.6820449 79.276808,84.6820449 C82.3397756,84.6820449 84.6820449,82.3397756 84.6820449,79.276808 C84.6820449,76.2138404 82.3397756,73.8715711 79.276808,73.8715711 L79.276808,73.8715711 Z M79.276808,19.819202 C82.3397756,19.819202 84.6820449,17.4769327 84.6820449,14.4139651 C84.6820449,11.3509975 82.3397756,9.00872818 79.276808,9.00872818 C76.2138404,9.00872818 73.8715711,11.3509975 73.8715711,14.4139651 C73.8715711,17.4769327 76.2138404,19.819202 79.276808,19.819202 L79.276808,19.819202 Z" id="Shape" fill="url(#radialGradient-3)"></path>
                    </g>
                    <g id="Group" transform="translate(161.436409, 145.581047)">
                        <path d="M42.521197,48.4202457 C42.521197,49.447908 41.6892605,50.2887226 40.6724493,50.2887226 L1.8487477,50.2887226 C0.831936463,50.2887226 0,49.447908 0,48.4202457 L0,21.3273298 C0,20.2996675 0.831936463,19.4588529 1.8487477,19.4588529 L40.6724493,19.4588529 C41.6892605,19.4588529 42.521197,20.2996675 42.521197,21.3273298 L42.521197,48.4202457 L42.521197,48.4202457 Z" id="Shape" fill="url(#linearGradient-4)"></path>
                        <path d="M12.6639217,17.7505311 L12.6639217,11.4911333 C12.6639217,6.72651704 16.5462919,2.80271543 21.2605985,2.80271543 C25.9749051,2.80271543 29.8572753,6.72651704 29.8572753,11.4911333 L29.8572753,17.7505311 L32.6303968,17.7505311 L32.6303968,11.4911333 C32.6303968,5.13831163 27.4539033,0 21.2605985,0 C14.9748563,0 9.89080017,5.13831163 9.89080017,11.4911333 L9.89080017,17.7505311 L12.6639217,17.7505311 L12.6639217,17.7505311 Z" id="Shape" fill="#A6A6AE"></path>
                        <rect id="Rectangle-path" fill="#55565A" x="19.8740377" y="28.0271543" width="2.77312154" height="13.0793387"></rect>
                        <ellipse id="Oval-12" fill="#55565A" cx="21.2605985" cy="32.0710723" rx="3.9638404" ry="3.9638404"></ellipse>
                    </g>
                </g>
            </g>
        </g>
    </g>
</svg>