<svg id="SvgjsSvg1000" xmlns="http://www.w3.org/2000/svg" version="1.1" xmlns:xlink="http://www.w3.org/1999/xlink" xmlns:svgjs="http://svgjs.com/svgjs" width="73" height="37"><defs id="SvgjsDefs1001"></defs><path id="SvgjsPath1007" d="M40 24L69.09 24L69.09 36.78L67.48 37.11C67.12 33.33 66.12 30.53 64.49000000000001 28.7C62.77000000000001 26.78 60.33000000000001 25.74 57.290000000000006 25.65L57.290000000000006 51.61C57.290000000000006 53.95 57.580000000000005 56.45 58.27 57.15C58.86000000000001 57.75 59.85 58.12 61.24 58.25C61.65 58.29 62.64 58.49 63.64 58.49L63.64 60.35L45.49 60.35L45.49 58.49C46.480000000000004 58.49 47.47 58.29 47.88 58.25C49.28 58.12 50.260000000000005 57.75 50.85 57.15C51.54 56.449999999999996 51.83 53.949999999999996 51.83 51.61L51.83 25.65C48.79 25.74 46.32 26.779999999999998 44.599999999999994 28.7C42.96999999999999 30.53 41.98 33.33 41.62 37.11L40.01 36.78ZM40.01 41.28L47.29 41.28L47.29 48.55L40.01 48.55ZM61.82 41.28L69.1 41.28L69.1 48.55L61.81999999999999 48.55ZM83.63 41.28L90.89999999999999 41.28L90.89999999999999 48.55L83.63 48.55ZM105.43 48.53L112.71000000000001 48.53L112.71000000000001 41.25L105.43 41.25Z " fill="#ffffff" fill-opacity="1" transform="matrix(1,0,0,1,-40,-24)"></path></svg>